<?xml version="1.0" encoding="utf-8"?>
<!-- Generator: Adobe Illustrator 16.0.0, SVG Export Plug-In . SVG Version: 6.00 Build 0)  -->
<!DOCTYPE svg PUBLIC "-//W3C//DTD SVG 1.1//EN" "http://www.w3.org/Graphics/SVG/1.1/DTD/svg11.dtd">
<svg version="1.1" id="Calque_1" xmlns="http://www.w3.org/2000/svg" xmlns:xlink="http://www.w3.org/1999/xlink" x="0px" y="0px"
	 width="432px" height="432px" viewBox="0 0 432 432" enable-background="new 0 0 432 432" xml:space="preserve">
<path fill="#688CAA" d="M261.104,259.369c0.755-0.087,0.823-0.156,0.929-0.916c0.237-1.725,0.808-3.278,2.14-4.484
	c2.373-2.149,3.725-0.968,3.338-2.746c-1.407-6.461,5.737-16.407,14.309-14.067c0.77,0.21,0.516-0.456,0.794-2.922
	c2.504-22.214,28.128-25.455,40.027-19.877c19.396,9.091,1.834,4.911,18.109,3.388c17.498-1.637,14.942,15.969,19.296,16.561
	c13.844,1.881,29.031,22.043,6.326,38.635c-9.128,6.67-24.394,4.572-27.328,2.873c0,0-13.304,3.696-13.304,3.698
	c-4.449,8.243-58.476,15.683-75.465,3.173C241.174,275.981,250.319,260.61,261.104,259.369z M301.542,280.322
	c24.848-3.017,17.324-3.316,16.122-7.584c-3.689-13.093,14.129-26.045,19.726-17.99c5.737,8.257-2.568,14.003-6.356,11.682
	c-2.041-1.25-1.692-4.052,0.558-4.761c1.393-0.438,2.689,0.179,2.724-1.421c0.121-5.647-5.014-2.3-6.325,0.731
	c-8.917,20.612,10.71,3.624,13.775,8.567c1.004,1.619,12.965,2.906,19.522-0.996c10.676-6.352,13.947-19.511,1.737-24.991
	c-8.876-3.983-9.94,1.233-13.416-1.65c-3.776-3.133,0.452-4.949,0.506-9.836c0.123-11.147-15.43-8.461-18.872-3.354
	c-8.109,12.026,6.75,16.565,6.465,9.196c-0.082-2.104-1.42-0.431-3.417-0.911c-1.863-0.447-2.626-2.948-0.514-4.761
	c5.65-4.849,14.397,6.205,3.604,12.326c-9.153,5.192-19.166-6.849-11.973-17.217c2.245-3.236,4.012-3.526,2.282-4.536
	c-34.728-20.262-48.51,18.813-30.037,24.423c9.535,2.896,13.434-6.699,10.005-8.659c-1.263-0.722-5.538,6.447-7.27,0.51
	c-2.27-7.783,14.391-9.932,12.939,2.249c-1.13,9.48-11.402,12.945-18.813,9.746c-1.606-0.693-13.832-9.725-18.693-5.256
	c-6.072,5.583,4.241,9.97-4.248,12.395c-9.693,2.769,9.803,20.657,13.052,9.876c1.888-6.266-5.176-7.061-2.326-3.182
	c2.349,3.195-3.983,6.744-6.529,0.76c-4.283-10.067,17.743-12.333,11.867,3.797c-2.941,8.073-17.894,7.309-22.401-2.483
	C261.253,258.342,224.762,289.644,301.542,280.322z"/>
<path fill="#688CAA" d="M62.873,254.564c1.263-0.527,1.262-0.527,0.606-1.756c-3.517-6.588,3.783-16.414,12.899-13.904
	c0,0,4.051-28.139,34.666-27.671c1.461,0.022,11.684,4.614,13.099,6.967c1.989,3.31,23.813-13.527,26.465,19.511
	c0.628,7.829-5.299,13.109-5.299,13.109s3.354,2.259,4.562,7.951c3.268,15.418-60.379,19.561-61.434,19.587
	C39.123,279.594,54.876,257.904,62.873,254.564z M141.102,256.469c-15.057-11.487,3.377-3.185,2.315-24.156
	c-0.849-16.771-21.645-5.668-18.255,3.894c2.207,6.223,9.518-1.337,5.327-1.919c-9.536-1.324,6.643-9.165,5.021,1.158
	c-1.467,9.342-17.765,9.747-16.082-2.675c0.266-1.962,2.187-5.789,2.185-5.794c-2.718-6.456-11.033-9.146-12.087-9.248
	c-27.928-2.687-30.992,33.478-19.866,32.25c15.758-1.738,1.577-14.601,3.076-6.561c0.937,5.016-3.897,3.287-4.664,0.137
	c-2.826-11.617,16.89-8.078,12.756,2.866c-3.68,9.74-16.277,9.555-19.747,5.575c-2.035-2.334-6.475-11.669-10.813-6.267
	c-4.696,5.848,5.394,6.325,8.371,11.53c1.633,2.854,2.566,11.707-6.123,11.645c-4.373-0.031-6.65-5.558-3.317-7.322
	c1.723-0.912,3.336,0.642,2.753,2.289c-1.191,3.365,7.042,1.611,3.234-2.741c-6.286-7.186-26.465,6.104-5.375,9.858
	C82.684,273.279,155.241,267.257,141.102,256.469z"/>
<path fill="#688CAA" d="M228.697,335.416c0.876-0.135,0.895-0.218,1.134-1.113c2.475-9.268,12.353-9.112,12.353-9.112
	c3.738-21.801,21.201-10.732,22.255-11.487c15.795-11.305,32.79,4.983,26.555,19.095c-0.364,0.822-0.369,0.875,0.494,1.089
	c12.888,3.203,19.87,23.416-24.277,22.873c-6.576-0.081-11.489,0.971-24.492,2.442C211.4,362.748,208.652,338.486,228.697,335.416z
	 M256.393,350.923c2.393-0.34,23.631-1.923,26.029-2.222c19.238-2.396,9.972-8.097,7.8-8.635c-2.725-0.675-5.396-0.682-5.67-0.744
	c-6.861-1.573,0.802-8.18,0.838-12.27c0.15-16.969-26.23-8.503-21.7,1.977c1.532,3.544,4.876,4.421,5.77,3.639
	c4.861-4.256-1.369-4.039-1.223-6.293c0.354-5.44,11.304-1.917,5.293,6.769c-7.447,10.763-25.029-3.937-13.527-16.293
	c0.98-1.054-12.17-4.739-11.876,11.505c0.183,10.15-9.459-1.591-10.619,9.156c-0.62,5.741,6.147,8.446,9.742,6.264
	c1.89-1.148,1.726-4.19,0.153-3.413c-3.942,1.948-6.021-5.85-0.087-6.062c5.72-0.205,8.005,7.168,4.253,11.28
	c-6.76,7.41-18.482,5.955-21.13-3.671c-1.02-3.706-15.449,5.375-4.589,8.739C237.488,354.256,241.041,353.1,256.393,350.923z"/>
<g>
	<path fill="#24211E" d="M304.666,187.982c15.786-13.71,26.364,28.971,14.139,8.625c-7.082-11.787-9.56-0.566-16.115-0.514
		c-4.454,0.035-3.646-7.799-9.15-6.313c-7.22,1.948-10.73,8.624-12.75,5.899c-1.876-2.531,8.822-9.456,11.627-10.904
		C299.433,181.152,304.666,187.982,304.666,187.982z"/>
	<path fill="#55514F" d="M335.08,145.149c-6.5-5.068-9.054,3.571-11.129,5.356c-3.769,3.242-5.02-5.874-11.731-5.63
		c-4.317,0.156-29.849,24.617-6.085-2.089c2.207-2.481,8.891-5.63,14.73,0.769c0.701,0.767,0.585,1.029,1.26,0.274
		C334.214,130.308,356.465,161.823,335.08,145.149z"/>
	<path fill="#55514F" d="M326.678,166.758c0.627,0.659,0.629,1.131,1.206,0.473c5.72-6.525,16.18-0.693,19.519,5.294
		c0.773,1.387-0.822,2.633-1.987,1.582c-17.536-15.828-10.44,2.892-19.598,1.315c-3.469-0.597-3.744-8.314-7.991-7.092
		c-4.33,1.246-8.188,7.689-10.878,8.082C301.332,177.229,318.056,157.704,326.678,166.758z"/>
	<path fill="#A29F9D" d="M314.101,114.764c12.832-15.722,20.801,14.246,10.98,1.996c-6.641-8.283-10.883,15.213-15.94,3.284
		c-2.461-5.806-2.726-8.975-11.155-1.558c-1.785,1.571-5.142-0.255,0.8-4.259C309.919,106.724,311.701,112.934,314.101,114.764z"/>
	<path fill="#A29F9D" d="M312.952,87.448c0.416,0.462,0.68,0.029,1.064-0.459c6.598-8.385,15.346,5.622,12.43,5.123
		c-3.107-0.532-5.713-7.513-8.056-2.933c-8.104,15.844-9.732-0.863-12.005-0.988c-5.14-0.283-8.014,6.123-7.842,2.807
		c0.13-2.503,2.486-4.412,4.648-5.628C306.466,83.527,309.95,84.114,312.952,87.448z"/>
	<path fill="#55514F" d="M295.46,136.609c-9.009,13.355-7.271-5.043-10.943-4.106c-3.392,0.866-5.806,5.578-7.247,4.572
		c-2.052-1.433,6.227-10.145,11.261-6.713c4.593,3.131,4.039,2.049,4.438,1.446c4.543-6.872,15.335,3.991,11.458,4.025
		C298.988,135.882,299.762,130.231,295.46,136.609z"/>
</g>
<g>
	<path fill="#7EAEA8" d="M186.149,217.862c-5.899-0.005-6.304,8.925-0.591,8.8C191.673,226.529,191.478,217.866,186.149,217.862z"/>
	<path fill="#7EAEA8" d="M212.666,210.432c0.014,8.626,12.938,2.383,6.895-3.498C217.207,204.645,212.661,206.616,212.666,210.432z"
		/>
	<path fill="#7EAEA8" d="M219.874,75.258c-60.44-15.563-98.749,36.577-93.447,79.291c5.57,44.883,39.868,74.348,38.944,73.294
		c8.396,9.569,1.594,2.643,2.616,9.219c1.648,10.598,6.902-3.335,9.595,24.885c1.768,18.534,4.705,10.783-0.548,14.597
		c-2.633,1.912-2.456,6.042,1.105,7.215c7.448,2.454,1.406,20.429,6.275,23.61c10.806,7.061,37.898,3.4,32.939-6.312
		c-0.093-0.183,0.273-5.236,0.278-5.594c0.175-12.533-0.485-10.853,1.19-11.556c4.994-2.092,6.534-7.596,2.325-9.854
		c-16.569-8.891,46.902-79.125,45.983-118.809C266.247,117.031,261.441,85.96,219.874,75.258z M138.773,163.552
		c-2.269-12.314-3.754-41.459,4.836-50.344c0.063-0.188,0.175-0.345,0.298-0.495c-5.499,6.66,9.701,8.842,7.734,1.165
		c-0.523-2.042-3.767-4.715-7.608-1.312c4.257-7.665,20.391-19.392,21.52-18.949c-0.058,2.411-41.717,46.146-0.777,124.842
		C163.628,219.377,144.874,196.677,138.773,163.552z M177.211,233.223c-15.882-34.008-45.869-90.053-2.023-137.635
		c0,0,14.433,0.246,17.153,0.027c2.246-0.181,3.217,43.181,3.217,46.898c0.014,0,0.026,0,0.04,0
		c0,108.52,7.097,94.337-12.269,92.586C178.776,234.688,177.732,234.341,177.211,233.223z M181.326,244.828
		c16.102,1.505,15.216-0.5,15.158,2.291c-2.594,33.977,4.279,30.291-7.604,29.391C187.298,276.39,180.575,244.758,181.326,244.828z
		 M209.644,298.202c-0.704,5.778-13.862,3.178-18.649,2.07c-1.699-0.393-2.631-8.163-2.707-9.78
		c-0.45-9.48,3.293-1.956,21.965-5.098C211.717,285.148,211.299,284.599,209.644,298.202z M212.562,269.771
		c-1.387,7.609,3.151,4.297-7.847,6.978c-0.929,0.227-3.539-31.45-1.465-31.58c0.807-0.05,13.441-1.906,14.239-2.021
		C217.489,243.147,212.562,269.768,212.562,269.771z M221.619,232.301c-0.373,1.806-19.457,6.955-19.066,1.313
		c0.51-7.364-0.484-33.396-0.375-31.682c-1.587-24.79-1.602-71.442-2.452-88.201c-1.468-28.916-5.749-12.359,16.422-20.668
		c3.1-1.162,16.216,20.618,19.884,52.508C240.422,183.751,221.837,231.247,221.619,232.301z M236.545,208.893
		c0.972-8.434,8.787-32.997,4.642-74.921c-1.512-15.282-16.27-43.838-16.27-43.838c11.135,3.687,28.442,18.513,31.455,60.897
		C257.201,162.679,239.301,206.62,236.545,208.893z"/>
	<path fill="#7EAEA8" d="M168.195,145.025c3.157,17.884,8.938-0.03,10.994-0.122c2.202-0.099,8.629-2.044,6.129-5.568
		c-2.409-3.395-4.217-1.216-2.291-5.16c6.329-12.954-7.93-3.976-8.792-5.029c-4.484-5.484-9.063-6.069-9.504-2.551
		c-1.432,11.458,4.341,4.566-3.818,12.826C151.947,148.497,168.009,143.972,168.195,145.025z"/>
	<path fill="#7EAEA8" d="M183.606,201.852c6.15-1.206,7.553-6.027,1.825-7.048c-0.924-0.165-0.479-4.471-0.359-5.351
		c0.071-3.925-2.793-4.257-4.203-2.943c-4.348,4.053-0.443,3.829-9.257,2.321c-2.583-0.442-4.328,2.3-2.589,4.41
		c4.877,5.914,1.273,1.588-1.235,6.224c-1.558,2.875,1.168,5.598,5.128,3.951c6.074-2.527,2.084,5.86,7.368,5.034
		C183.931,207.878,181.743,202.218,183.606,201.852z"/>
	<path fill="#7EAEA8" d="M158.859,176.026c-0.18,5.286,8.985,5.787,9.112-0.066C168.1,170.057,159.1,168.966,158.859,176.026z"/>
	<path fill="#7EAEA8" d="M185.584,106.486c0.013-6.113-8.806-5.511-8.79,0.401C176.809,112.566,185.572,111.859,185.584,106.486z"/>
	<path fill="#7EAEA8" d="M182.742,167.811c5.952,2.529,8.589-7.296,1.777-7.259C180.875,160.902,178.879,166.169,182.742,167.811z"
		/>
	<path fill="#7EAEA8" d="M223.162,164.85c-2.116-7.11-6.427-7.707-7.68-4.572c-2.149,5.376-0.603,6.223-2.796,6.727
		c-8.214,1.888-10.209,6.854-0.585,8.696c1.055,0.202-0.713,14.917,7.427,3.924c0.978-1.32,9.76,6.217,6.913-3.885
		c-0.402-1.427,4.291-4.898,3.262-7.146C227.914,164.691,223.787,166.951,223.162,164.85z"/>
	<path fill="#7EAEA8" d="M213.558,123.392c-5.476,4.521-2.775,8.051,2.601,6.159c1.534-0.54,0.631,0.732,1.648,3.013
		c0.831,1.861,3.276,2.411,4.889-0.685c3.141-6.028-0.01-1.567,5.021-4.379c1.233-0.689,2.269-2.67-0.723-4.423
		c-1.054-0.618,2.151-12.197-5.556-5.665c-1.841,1.56-1.151-0.842-5.345-2.099C210.185,113.544,215.189,122.045,213.558,123.392z"/>
	<path fill="#7EAEA8" d="M221.347,146.875c0.185,4.024,4.721,5.447,7.512,2.658C234.302,144.092,221.446,138.676,221.347,146.875z"
		/>
	<path fill="#7EAEA8" d="M215.179,98.992c0.04-4.506-6.716-4.82-6.79-0.095C208.324,102.979,215.141,103.292,215.179,98.992z"/>
	<path fill="#7EAEA8" d="M245.04,149.809c-0.188,5.64,8.808,5.12,8.751-0.517C253.736,143.763,245.066,143.786,245.04,149.809z"/>
	<path fill="#7EAEA8" d="M240.146,117.829c-2.004,2.37-0.053,5.73,3.235,5.763C251.205,123.621,246.428,110.405,240.146,117.829z"/>
	<path fill="#7EAEA8" d="M138.889,160.551c-0.076,4.117,6.212,4.142,6.263-0.003C145.206,156.188,138.965,156.477,138.889,160.551z"
		/>
</g>
</svg>
