<svg xmlns="http://www.w3.org/2000/svg" viewBox="0 0 64 64"><defs><style>.cls-1{fill:none;stroke:#999;stroke-linecap:round;stroke-linejoin:round;stroke-width:2px}.cls-5{fill:#54596e}</style></defs><g id="airbaloon"><path class="cls-1" d="M25 46l2 8M39 46l-2 8"/><path d="M43.92 46C49.41 40 53 30.82 53 23.49A21.25 21.25 0 0 0 32 2a21.25 21.25 0 0 0-21 21.49C11 30.82 14.59 40 20.08 46z" stroke="#54596e" fill="#ffd578" stroke-linecap="round" stroke-linejoin="round" stroke-width="2"/><path d="M43.92 41H20.08a36.9 36.9 0 0 1-8.94-19.94c-.08.8-.14 1.61-.14 2.43C11 30.82 14.59 40 20.08 46h23.84C49.41 40 53 30.82 53 23.49c0-.82-.06-1.63-.14-2.43A36.9 36.9 0 0 1 43.92 41z" opacity=".15" fill="#54596e"/><path d="M38.25 46C41.12 40 43 30.82 43 23.49 43 11.62 38.08 2 32 2s-11 9.62-11 21.49C21 30.82 22.88 40 25.75 46z" fill="#f4a14e" stroke="#54596e" stroke-linecap="round" stroke-linejoin="round" stroke-width="2"/><ellipse class="cls-5" cx="32" cy="34" rx="3" ry="5"/><circle class="cls-5" cx="16" cy="23" r="2"/><circle class="cls-5" cx="48" cy="23" r="2"/><path fill="#a1b7ff" stroke="#54596e" stroke-linecap="round" stroke-linejoin="round" stroke-width="2" d="M37 63H27l-1-9h12l-1 9z"/><path stroke="#54596e" stroke-linecap="round" stroke-linejoin="round" stroke-width="2" fill="none" d="M24 54h16"/></g></svg>