<?xml version="1.0" encoding="utf-8"?>
<!-- Generator: Adobe Illustrator 22.0.1, SVG Export Plug-In . SVG Version: 6.00 Build 0)  -->
<svg version="1.1" id="Calque_1" xmlns="http://www.w3.org/2000/svg" xmlns:xlink="http://www.w3.org/1999/xlink" x="0px" y="0px"
	 viewBox="0 0 432 432" style="enable-background:new 0 0 432 432;" xml:space="preserve">
<style type="text/css">
	.st0{fill:#B3A6AD;}
	.st1{fill:#B6B155;}
	.st2{fill:#990033;}
	.st3{fill:#660A1E;}
	.st4{fill:#A7A6AA;}
	.st5{fill:#EF798A;}
	.st6{fill:#FFB2B2;}
	.st7{fill:#A70808;}
	.st8{fill:#DF4646;}
	.st9{fill:#FF7878;}
	.st10{fill:#F2A297;}
	.st11{fill:#BA1717;}
	.st12{fill:#543A3C;}
	.st13{fill:#CA1542;}
	.st14{fill:#E74C6E;}
	.st15{fill:#006837;}
	.st16{fill:#004924;}
	.st17{fill:#D33757;}
	.st18{fill:#E06581;}
	.st19{fill:#014724;}
	.st20{fill:#E14666;}
	.st21{fill:#ABDFD3;}
	.st22{fill:#C5EFE4;}
	.st23{fill:#DC4160;}
	.st24{fill:#A888AD;}
	.st25{fill:#B99BBF;}
	.st26{fill:#F8A362;}
	.st27{fill:#F9B587;}
	.st28{fill:#F2F2F2;}
	.st29{fill:#FDFFFE;}
	.st30{fill:#F2D668;}
	.st31{fill:#F9E4A5;}
	.st32{fill:#F5A6DF;}
	.st33{fill:#F4CEEB;}
	.st34{fill:#CCCCCC;}
	.st35{fill:#FBB03B;}
	.st36{fill:#FFFFFF;}
	.st37{fill:#ECCDD2;}
	.st38{fill:#8AD7AB;}
	.st39{fill:#8FC8E2;}
	.st40{fill:#D3CE94;}
	.st41{fill:#F9CFCF;}
	.st42{fill:#EDE9C3;}
	.st43{fill:#9BD6EA;}
	.st44{fill:#F8D9C4;}
	.st45{fill:#EB678B;}
	.st46{fill:#A5394C;}
	.st47{fill:#DD726C;}
	.st48{fill:#E5847A;}
	.st49{fill:#EF8A7F;}
	.st50{fill:#3CBC91;}
	.st51{fill:#8CC63F;}
	.st52{fill:#B78D5C;}
	.st53{fill:#2A2A2B;}
	.st54{fill:#EBCEC6;}
	.st55{fill:#F49090;}
	.st56{fill:#B3D8E8;}
	.st57{fill:#EFE6E4;}
	.st58{fill:#FBD8E3;}
	.st59{fill:#E48397;}
	.st60{fill:#B2E6F9;}
	.st61{fill:#42210B;}
	.st62{fill:#E0E0E0;}
	.st63{fill:#9D6D47;}
	.st64{fill:#EFD1B4;}
	.st65{fill:#0071BC;}
	.st66{fill:#679CBA;}
	.st67{fill:#DBDCDD;}
	.st68{fill:#DDB28E;}
	.st69{fill:#C69C6D;}
	.st70{fill:#603813;}
	.st71{fill:#8C6239;}
	.st72{fill:#E9EAE4;}
	.st73{fill:#F7931E;}
	.st74{fill:#754C24;}
	.st75{fill:#A67C52;}
	.st76{fill:#9E1E28;}
	.st77{fill:#F15A24;}
	.st78{fill:#E04819;}
	.st79{fill:#009245;}
	.st80{fill:#00552B;}
	.st81{fill:#84821B;}
	.st82{fill:#CD271F;}
	.st83{fill:#BB8130;}
	.st84{fill:#BBBABF;}
	.st85{fill:#E0E0E2;}
	.st86{fill:#C79359;}
	.st87{fill:#BA844F;}
	.st88{fill:#29ABE2;}
	.st89{fill:#EEB752;}
	.st90{fill:#A8B0B2;}
	.st91{fill:#035684;}
	.st92{fill:#EFBF73;}
	.st93{fill:#D3A272;}
	.st94{fill:#C3C8C9;}
	.st95{fill:#EBDCC9;}
	.st96{fill:#EAD696;}
	.st97{fill:#E57ACC;}
	.st98{fill:#8D5F96;}
	.st99{fill:#FFD9E4;}
	.st100{fill:#60BA84;}
	.st101{fill:#CCEDE5;}
	.st102{fill:#E8E8E8;}
	.st103{fill:#F9D2D2;}
	.st104{fill:#B9B9BA;}
	.st105{fill:#939393;}
	.st106{fill:#62612A;}
	.st107{fill:#79484E;}
	.st108{fill:#C2BE5C;}
	.st109{fill:#F1C3A2;}
	.st110{fill:#B2625C;}
	.st111{fill:#E1AE9D;}
	.st112{fill:#7597A0;}
	.st113{fill:#F2DBD5;}
	.st114{fill:#B27C62;}
	.st115{fill:#E6E6E6;}
	.st116{fill:#AF8864;}
	.st117{fill:#F1E9DF;}
	.st118{fill:#9E6A56;}
	.st119{fill:#2E3192;}
	.st120{fill:#EAEAEA;}
	.st121{fill:#1B1464;}
	.st122{fill:#EAE5E6;}
	.st123{fill:#7F9BEA;}
	.st124{fill:#EEBCC5;}
	.st125{fill:#DB8E98;}
	.st126{fill:#B58187;}
	.st127{fill:#80424C;}
	.st128{fill:#F3EED0;}
	.st129{fill:#CCD8B0;}
	.st130{fill:#46653B;}
	.st131{fill:#345129;}
	.st132{fill:#C9A6AC;}
	.st133{fill:#D6B6BA;}
	.st134{fill:#DE7139;}
	.st135{fill:#F2CB56;}
	.st136{fill:#DE3A55;}
	.st137{fill:#CD9586;}
	.st138{fill:#B47468;}
	.st139{fill:#F5DCD8;}
	.st140{fill:#C4BCBF;}
	.st141{fill:#E0B182;}
	.st142{fill:#9B6B61;}
	.st143{fill:#DBB89B;}
	.st144{fill:#DED2D3;}
	.st145{fill:#7D6364;}
	.st146{fill:#F1A3A1;}
	.st147{fill:#B3B3B3;}
	.st148{fill:#F9CEBE;}
	.st149{fill:#142738;}
	.st150{fill:#911928;}
	.st151{fill:#A32F4E;}
	.st152{fill:#7A0118;}
	.st153{fill:#DAE576;}
	.st154{fill:#E87F38;}
	.st155{fill:#F47621;}
	.st156{fill:#BC5B1B;}
	.st157{fill:#E6EF6A;}
	.st158{fill:#7C0101;}
	.st159{fill:#6DA84A;}
	.st160{fill:#83AF6E;}
	.st161{fill:#39B54A;}
	.st162{fill:#812791;}
	.st163{fill:#FC540D;}
	.st164{fill:#DD4410;}
	.st165{fill:#D3CE6A;}
	.st166{fill:#F2C8AD;}
	.st167{fill:#EFB58E;}
	.st168{fill:#F27622;}
	.st169{fill:#8DA34F;}
	.st170{fill:#ACBF77;}
	.st171{fill:#D6C188;}
	.st172{fill:#E5CED4;}
	.st173{fill:#15104F;}
	.st174{fill:#E5E3E3;}
</style>
<g>
	<g>
		<path class="st64" d="M207.1,219.1c0.2-0.5,0.5-0.9,0.5-1.3c0.3-1.4,0.6-2.8,0.7-4.2c0.4-3.7,0.4-7.5,0.3-11.2
			c-0.1-5.3,0.3-10.6,1.3-15.8c0.7-3.7,1.6-7.4,2.4-11.1c0.6-2.7,0.9-5.4,1.1-8.2c0.4-5.4,0.5-10.8,0.5-16.2
			c0-6.4,0.5-12.8,1.4-19.1c0.5-3.4,1.4-6.7,2.9-9.9c1-2.1,2.3-3.8,4.3-5.1c1.8-1.2,3.7-1.7,5.8-1.3c1,0.2,1.9,0.6,2.7,1.2
			c1.5,1.1,2.6,2.6,3.5,4.3c1.1,2.3,1.8,4.8,2.2,7.3c0.7,4,1,8.1,1,12.2c0,6.2,0,12.4-0.1,18.6c0,3.8-0.2,7.7-0.1,11.5
			c0,3.4,0.2,6.9,0.4,10.3c0.1,2.1-0.1,4.3-0.2,6.4c-0.3,3.6-0.4,7.1-0.2,10.7c0.3,4,0.2,8,0,12c-0.1,2.3-0.3,4.6,0.3,6.8
			c0.1,0.5,0.3,1.1,0.5,1.6c0.1,0.3,0.3,0.6,0.6,1c0.5-0.8,0.9-1.5,1.3-2.2c1-1.9,1.7-4,2.2-6.1c0.8-3.3,1.6-6.6,2.4-9.8
			c0.7-2.8,1.4-5.5,2.1-8.3c0.8-3,2-5.9,3.4-8.7c0.8-1.6,1.5-3.3,2.3-4.9c1.8-3.8,2.9-7.8,3.5-11.9c0.7-4.4,1.5-8.8,2.3-13.1
			c0.6-3.4,1.2-6.7,1.8-10.1c0.5-2.5,1.1-4.9,2-7.3c0.9-2.5,2.4-4.6,4.3-6.5c0.9-0.9,1.9-1.6,3.1-2.1c1.8-0.8,3.7-0.7,5.5,0.1
			c2.1,1,3.7,2.5,4.7,4.5c1.2,2.2,1.8,4.6,2.2,7.1c0.6,4.3,0.1,8.5-1.3,12.6c-0.9,2.7-1.8,5.3-2.8,8c-0.7,1.8-0.9,3.7-1.2,5.6
			c-1,7.2-2.4,14.3-3.9,21.4c-0.1,0.4-0.2,0.9-0.4,1.3c-1.5,3.9-2.4,7.9-3.2,12c-0.8,4.1-1.1,8.3-1.5,12.5c-0.2,2.4-0.6,4.8-0.9,7.2
			c-0.3,2.4-0.3,4.8,0,7.2c0.1,0.9,0.2,1.8,0.3,2.7c0.1,0.8,0.4,1.5,0.9,2.2c0.5,0.7,1,0.8,1.7,0.3c0.6-0.5,1.2-1,1.6-1.6
			c1.1-1.3,2.1-2.7,3.1-4.1c1.7-2.3,3.4-4.5,5.2-6.8c1.9-2.3,3.7-4.6,5.2-7.2c0.9-1.5,1.9-3,2.8-4.5c0.4-0.7,0.8-1.5,1.1-2.4
			c0.7-1.9,1.5-3.6,2.7-5.2c2.3-3.2,4.1-6.7,5.6-10.4c0.6-1.5,1.3-2.9,1.9-4.3c1-2.2,2.1-4.5,3.1-6.7c0.8-1.8,1.9-3.5,3.5-4.8
			c0.9-0.8,1.9-1.4,3-1.9c2.7-1.2,5.3-0.4,6.9,2c1.2,1.8,1.8,3.9,2.2,6.1c0.7,4.1,0.2,8-1.1,11.9c-0.6,1.9-1.4,3.8-2.2,5.7
			c-1,2.2-1.9,4.5-2.6,6.8c-1.2,3.8-3.2,7.2-5.5,10.4c-0.6,0.8-1.4,1.5-2.2,2.1c-0.8,0.6-1.2,1.3-1.3,2.2c-0.1,1-0.2,1.9-0.4,2.8
			c-0.3,2.1-1,4-2,5.9c-1.3,2.2-2.5,4.3-3.4,6.7c0,0.1-0.1,0.3-0.2,0.4c-1.3,4-3.6,7.4-6.2,10.7c-0.6,0.7-1.3,1.3-2,2
			c-0.3,0.3-0.4,0.5-0.4,0.9c0.1,0.6,0.1,1.1,0.3,1.7c0.5,2.3,0.8,4.6,1,6.9c0.1,1.5,0.3,3,0.2,4.6c0,2-0.2,4-0.3,6.1
			c-0.3,4.2-1.2,8.3-2,12.5c-0.5,2.5-0.6,5-0.7,7.6c-0.1,3.1-0.1,6.1-0.3,9.2c-0.2,3-0.7,6-1.3,8.9c-1.1,5.4-2.4,10.8-4.2,16.1
			c-0.4,1.1-0.8,2.2-1.2,3.2c-1.7,4.1-2.8,8.4-3.9,12.7c-1,4.3-2.1,8.6-3.2,12.9c-1.3,4.9-3,9.7-4.7,14.5c-0.1,0.2-0.1,0.4-0.2,0.6
			c-27.2,0-54.4,0-81.8,0c0-0.3,0-0.5,0.1-0.8c0.7-2.4,0.9-4.8,1.1-7.2c0.1-1.6-0.2-3.2-0.7-4.6c-0.7-1.9-1.5-3.8-2.3-5.7
			c-0.2-0.5-0.6-1-0.9-1.4c-1.9-2.7-4-5.3-5.8-8c-3.1-4.6-6.4-9.1-9.1-14c-3.3-5.9-7.4-11.4-12.1-16.3c-0.6-0.7-1.2-1.3-1.8-2
			c-2.5-2.7-4.5-5.7-6.2-8.9c-1.1-2.2-2.3-4.5-3.3-6.8c-2.3-5-5.4-9.5-9.2-13.5c-2.5-2.7-5-5.4-7.6-8.1c-0.7-0.7-1.4-1.4-2.1-2.2
			c-1.6-1.6-3.2-3.2-4.7-4.8c-2.9-3.2-6.3-6-10-8.3c-1.1-0.7-2.3-1.4-3.3-2.2c-0.7-0.5-1.4-1.1-2-1.8c-1.5-1.9-1.1-4.4,0.8-5.8
			c1-0.7,2.2-1.2,3.4-1.5c2.5-0.7,5.1-1.2,7.7-1.4c1.6-0.1,3.2-0.3,4.8-0.4c3-0.1,6,0.2,8.7,1.5c3.7,1.7,7.1,3.9,10,6.7
			c1.7,1.7,3.2,3.5,4.8,5.2c2,2.1,3.9,4.3,6,6.3c3,3,6,6.1,8.8,9.4c2.2,2.5,4.5,4.9,7,7c0.8,0.6,1.5,1.2,2.4,1.7
			c0.7,0.4,1.6,0.7,2.4,1c0.7,0.2,1.3,0,1.7-0.6c0.4-0.6,0.7-1.2,0.9-1.9c0.3-0.9,0.5-1.8,0.8-2.7c0.8-2.4,1.5-4.9,2.3-7.3
			c1.7-4.9,1.5-4.8,1.3-9.7c-0.1-2.7-0.1-5.3,0.2-7.9c0.1-1.5,0.3-3,0.3-4.5c0.1-3.1,0.3-6.2,0.3-9.3c0-3.8-0.8-7.5-1.6-11.3
			c-0.8-3.7-2.2-7.3-3.4-11c-2.5-7.5-4.9-15.1-7.4-22.6c-1.3-3.9-1.9-7.8-2.1-11.8c0-0.7-0.1-1.3-0.2-2c-0.1-0.8-0.3-1.6-0.8-2.3
			c-1.5-2.2-2.3-4.7-2.9-7.3c-0.7-3.3-1.6-6.6-2.3-9.9c-0.6-2.5-0.9-5-1-7.6c-0.1-2.3,0.4-4.6,1.4-6.7c2.7-5.4,9.5-6.6,13.9-3.1
			c1,0.8,1.9,1.8,2.7,2.9c2.9,3.9,5,8.1,6.3,12.7c0.8,2.8,1.7,5.7,2.5,8.5c0.7,2.3,1.2,4.7,1.3,7.1c0,0.6,0.2,1.2,0.6,1.7
			c2,2.3,3.3,5,4.2,7.9c0.7,2.2,1.6,4.4,2.3,6.6c0.8,2.3,1.4,4.6,1.8,6.9c0.1,0.6,0.3,1.3,0.7,1.8c2.4,3.4,3.9,7.2,5.1,11.1
			c0.7,2.3,1.6,4.6,2.7,6.7c0.7,1.4,1.5,2.7,2.6,3.8C206.5,218.6,206.7,218.8,207.1,219.1z"/>
	</g>
	<g>
		<g>
			<path class="st70" d="M288.7,143.9c0,4.2-0.6,8-1.2,11.7c-1,5.8-2.8,11.4-4.7,16.9c-0.2,0.5-0.4,1.1-0.6,1.6
				c-0.7,1.4-1.9,2.2-3.4,2.5c-1.7,0.3-3.3,0.1-5,0c-4.4-0.5-8.7-1.3-12.9-2.5c-2.3-0.6-4.5-1.5-6.8-2.3c-1.7-0.6-2.4-1.5-2.3-3.4
				c0-1.4,0.2-2.9,0.4-4.3c0.2-1.4,0.6-2.8,0.9-4.2c0.3-1.4,0.4-2.8,0.7-4.2c1-5.2,2-10.4,3.9-15.4c1.3-3.4,3-6.6,5.3-9.5
				c2.1-2.6,4.6-4.7,7.8-5.9c2.2-0.9,4.6-1.2,7-0.8c2.1,0.3,3.9,1.3,5.5,2.8c2.3,2.3,3.8,5.1,4.6,8.2
				C288.5,138.2,288.7,141.2,288.7,143.9z"/>
			<path class="st71" d="M275.2,107.4c5.7-0.9,10.8,0.3,15.4,3.7c0.2-0.1,0.3-0.2,0.5-0.3c3.8-3,9.1-1.7,11.1,2.8
				c0.8,1.8,0.5,3.5-0.3,5.2c-0.6,1.2-1.5,2.1-2.5,2.9c-0.5,0.4-0.6,0.8-0.4,1.5c1.3,4.7,0.9,9.3-1.5,13.6c0,0,0,0,0,0.1
				c-1.8,3.4-7.8,8.5-12.3,9.7c-5.9,1.5-11.7,1.2-17.1-1.8c-4-2.1-6.8-5.3-8.3-9.6c-0.8-2.5-1.5-5-1.2-7.7c0.4-4.4,2-8.4,4.8-11.9
				c0.3-0.4,0.7-0.9,1.1-1.3c-0.1-0.2-0.3-0.4-0.4-0.5c-1.7-2.3-2.2-4.8-1.3-7.4c0.8-2.3,2.4-3.8,4.8-4.3c2.6-0.5,4.7,0.5,6.3,2.5
				c0.5,0.6,0.8,1.4,1.2,2.1C275,106.8,275.1,107.1,275.2,107.4z"/>
			<g>
				<path class="st70" d="M264.9,109.3c0-2.2,0.6-3.5,2.2-4.3c0.9-0.4,1.9-0.5,2.8,0c1.4,0.7,2.4,1.9,3.1,3.3
					c0.3,0.7,0.2,1.4-0.4,1.9c-1.3,1.1-2.8,2-4.4,2.6c-0.9,0.3-1.7,0.1-2.3-0.8C265.2,111,264.9,109.9,264.9,109.3z"/>
				<path class="st70" d="M295.5,111c1.9,0.1,3.2,0.8,3.9,2.4c0.8,1.6,0.8,3.1-0.4,4.6c-0.4,0.5-0.9,1-1.4,1.4
					c-0.7,0.5-1.2,0.5-1.8-0.1c-0.4-0.4-0.8-0.8-1.1-1.3c-0.8-1.1-1.5-2.3-2.2-3.4c-0.1-0.2-0.2-0.4-0.3-0.7
					c-0.3-0.8-0.2-1.3,0.5-1.9C293.6,111.4,294.6,111.1,295.5,111z"/>
			</g>
			<g>
				<path d="M273.5,119.3c0,0.9-0.2,1.8-0.7,2.5c-0.5,0.7-1.1,1.1-2,0.9c-1-0.2-1.5-0.6-1.5-1.6c0-1.3,0.4-2.5,1.1-3.6
					c0.4-0.6,1-1,1.8-0.8c0.8,0.2,1.1,0.8,1.2,1.6C273.5,118.6,273.5,119,273.5,119.3z"/>
				<path d="M288.9,122.9c0,0.9-0.2,1.8-0.7,2.5c-0.5,0.7-1.1,1.1-2,0.9c-1-0.2-1.5-0.6-1.5-1.6c0-1.3,0.4-2.5,1.1-3.6
					c0.4-0.6,1-1,1.8-0.8c0.8,0.2,1.1,0.8,1.2,1.6C288.9,122.3,288.9,122.6,288.9,122.9z"/>
				<path d="M275.7,125.9c1,0.2,2.1,0.3,3.1,0.8c0.9,0.5,1.1,1.3,0.4,2c-0.6,0.6-1.2,1-1.9,1.5c-0.5,0.4-1.1,0.2-1.5-0.2
					c-0.8-0.8-1.3-1.8-1.5-2.9C274,126.5,274.6,125.9,275.7,125.9z"/>
			</g>
		</g>
		<g>
			<path class="st6" d="M230.6,168.1c-4.5-0.2-9-0.5-13.5-0.9c-1.7-0.2-3.5-0.5-5.2-0.7c-0.3,0-0.5-0.1-0.8-0.2
				c-1.2-0.4-2.1-1.1-2.4-2.4c-0.3-1.1-0.5-2.2-0.6-3.3c-0.3-3.3-0.5-6.6-0.3-9.9c0.2-4.6,0.6-9.3,1.4-13.8c0.4-2,0.6-4,0.9-5.9
				c0.9-4.7,2.5-9.1,5.3-13c0.7-1.1,1.6-2.1,2.5-3c4.4-4.3,10.9-4.5,15.6-0.7c1.4,1.1,2.5,2.4,3.5,3.9c2.1,3.2,3.5,6.8,4.4,10.5
				c0.8,3.3,1.2,6.6,1.6,10c0.6,5.6,0.6,11.1,0.4,16.7c-0.1,2.7-0.4,5.4-0.8,8.1c-0.4,2.6-1.8,4-4.5,4.2
				C235.6,167.9,233.1,168,230.6,168.1z"/>
			<path class="st54" d="M248.4,97.5c-1.6,4.2-3.7,8-5.7,12c0.1,0.2,0.2,0.3,0.4,0.5c2.4,2.8,4.2,5.9,5.2,9.5c0.4,1.4,1,2.8,1.2,4.2
				c0.7,4.9-0.9,8.7-5.4,11.6c-2,1.3-4.3,2-6.7,2.6c-5.2,1.2-10.4,1.3-15.6,0.6c-2.6-0.4-5.2-1-7.6-2.1c-0.7-0.3-1.3-0.6-2-1
				c-3.4-1.9-5.1-4.9-5.5-8.7c-0.6-4.8,0.7-9.3,3.2-13.4c1.4-2.3,3.1-4.3,5.2-6.1c0.1-0.1,0.3-0.3,0.4-0.4c0-0.1,0-0.2-0.1-0.3
				c-3.3-5.6-6-11.5-8.4-17.6c-1.4-3.4-2.6-6.9-3.5-10.5c-0.5-2.1-0.9-4.1-0.8-6.3c0.1-1.7,0.5-3.3,1.5-4.7c1.8-2.3,4.7-3.3,7.5-2.5
				c2.5,0.8,4.5,2.2,5.9,4.5c1.4,2.2,2.3,4.6,3.1,7.1c1.3,4.3,2.3,8.7,3,13.2c0.7,4,1.2,8,1.7,12c0,0.3,0.1,0.6,0.2,1
				c2.1-0.2,4.2-0.2,6.3,0.3c0.1-0.2,0.2-0.3,0.2-0.5c0.8-4.1,2.3-8,3.9-11.9c1-2.4,2-4.8,3-7.2c0.4-1,0.9-1.9,1.5-2.8
				c0.4-0.7,1-1.3,1.6-1.8c1.5-1.2,3.2-1.2,4.8-0.1c0.7,0.5,1.4,1.1,2,1.8c0.8,1,1.6,2,2.2,3.2c2.3,4.2,4,8.7,4.9,13.4
				c0.2,1.3,0.4,2.6,0.1,3.9c-0.1,0.2-0.1,0.5-0.2,0.7c-0.6,1.5-2.2,1.9-3.5,1c-0.5-0.3-0.9-0.7-1.2-1.2c-0.9-1.1-1.7-2.3-2.5-3.5
				C248.8,98.1,248.7,97.9,248.4,97.5z"/>
			<g>
				<path class="st6" d="M222.3,102.8c0,0.7-0.2,1.2-0.7,1.5c-0.4,0.2-0.8,0.4-1.2,0.5c-1.3,0.4-1.7,0.2-2.3-1
					c-3.1-5.7-5.9-11.6-8.3-17.6c-1-2.7-1.9-5.5-2.4-8.4c-0.2-1.2-0.3-2.3-0.1-3.5c0.1-0.7,0.3-1.4,0.7-2c0.7-1,1.9-1.3,3.1-0.7
					c0.8,0.4,1.3,1,1.8,1.7c1,1.4,1.7,2.9,2.4,4.5c1.8,4.4,3.2,9,4.3,13.7c0.9,3.6,1.7,7.2,2.5,10.8
					C222.2,102.4,222.3,102.7,222.3,102.8z"/>
				<path class="st6" d="M245.5,94.5c-0.1,0.3-0.1,0.6-0.2,0.9c-1.2,3.6-2.9,7-5.1,10.1c-0.7,1-1.3,1.1-2.4,0.6
					c-0.6-0.3-1.3-0.7-1.9-1.1c-0.7-0.4-0.9-1-0.7-1.9c0.2-0.9,0.5-1.7,0.7-2.6c1.2-3.6,2.5-7.2,4.1-10.7c0.4-0.8,0.7-1.5,1.2-2.2
					c0.6-1,1.4-1,2,0c0.3,0.5,0.5,1.1,0.7,1.6c0.5,1.6,0.9,3.3,1.4,5C245.5,94.1,245.5,94.3,245.5,94.5z"/>
			</g>
			<g>
				<path class="st9" d="M227.6,119.5c0.8,0.2,1.6,0.3,2.3,0.5c1.1,0.4,1.4,1.3,0.8,2.3c-0.5,0.9-1,1.8-1.6,2.7
					c-0.7,1.1-1.5,1.2-2.5,0.2c-0.9-0.9-1.7-1.9-2.2-3.1c-0.4-0.9-0.1-1.8,0.8-2.2C226,119.8,226.8,119.7,227.6,119.5z"/>
				<g>
					<path d="M222.3,117.1c-0.2,0.2-0.4,0.6-0.7,0.8c-0.5,0.5-1.2,0.5-1.8,0c-0.2-0.2-0.5-0.4-0.6-0.7c-0.5-1-0.6-2.1-0.4-3.3
						c0.1-0.7,0.6-1.1,1.2-1.2c0.7-0.2,1.2,0.2,1.6,0.7C222.6,114.4,222.7,115.6,222.3,117.1z"/>
					<path d="M236.4,117.7c-0.2,0.2-0.5,0.4-0.9,0.6c-0.6,0.3-1.3,0.1-1.7-0.5c-0.2-0.2-0.3-0.5-0.4-0.8c-0.2-1.1,0-2.2,0.5-3.3
						c0.3-0.6,0.8-0.9,1.5-0.9c0.7,0,1.1,0.5,1.4,1.1C237.3,115.2,237.1,116.4,236.4,117.7z"/>
				</g>
			</g>
		</g>
		<g>
			<g>
				<path class="st53" d="M150,254.1c-0.2,0.5-0.4,0.9-0.7,1.4c-0.2,0.3-0.4,0.6-0.5,0.9c-2.4,3.8-5.1,7.3-8.2,10.5
					c-2.4,2.5-4.9,5-7.4,7.5c-0.2,0.2-0.3,0.3-0.5,0.5c-0.5,0.5-1.1,0.9-1.6,1.3c-1.5,1.1-3,1.2-4.5,0.1c-2.8-1.8-5.6-3.8-8.2-5.9
					c-4.3-3.3-8.5-6.7-12.3-10.6c-1.6-1.6-3.2-3.3-4.6-5.2c-1.5-2.1-2.6-4.3-3.1-6.9c-1-5.1,1.2-9.4,5.9-11.5c1.9-0.9,4-1.2,6-1.5
					c1.4-0.2,2.8-0.2,4-0.3c6.2,0.2,11.9,1.4,17.4,3.7c4.3,1.8,8.3,4.2,12.1,6.9c1.7,1.2,3.4,2.5,5,3.7
					C150.5,250.2,151,251.8,150,254.1z"/>
				<path class="st72" d="M149.4,255.5c-0.2,0.3-0.4,0.6-0.5,0.9c-2.4,3.8-5.1,7.3-8.2,10.5c-2.4,2.5-4.9,5-7.4,7.5
					c-0.2,0.2-0.3,0.3-0.5,0.5c-1-0.6-2-1.2-3-1.9c-4.1-2.6-8-5.4-11.9-8.3c-2-1.5-4-3.2-5.7-5c-1.2-1.2-2.3-2.5-3.2-3.9
					c-0.4-0.6-0.7-1.3-0.9-2c-0.5-1.9,0.6-3.7,2.4-4.2c0.6-0.2,1.2-0.1,1.8-0.2c0.3,0,0.6,0,0.9,0c-0.3-0.9-0.6-1.6-0.8-2.3
					c-0.3-0.9-0.5-1.8-0.3-2.7c0.2-0.9,0.7-1.7,1.4-2.3c1-0.7,2.2-1.2,3.4-1.3c1.7-0.1,3.4,0.1,5.1,0.6c2.2,0.6,4.3,1.4,6.3,2.4
					c4.6,2.2,9.1,4.8,13.5,7.3c2.4,1.4,4.8,2.8,7.2,4.3C149.1,255.3,149.2,255.4,149.4,255.5z"/>
			</g>
			<g>
				<path class="st73" d="M125.1,256.9c-1.9-0.2-3.7-0.5-5.6-0.8c-0.9-0.1-1.2-0.8-0.9-1.6c0.1-0.3,0.3-0.6,0.4-0.9
					c0.8-1.1,1.6-2.2,2.4-3.3c0.1-0.2,0.3-0.4,0.5-0.5c0.4-0.3,0.9-0.3,1.3,0c0.2,0.2,0.5,0.3,0.6,0.6c1,1.6,2,3.2,2.6,5.1
					c0,0.2,0.1,0.3,0.1,0.5c0.1,0.6-0.2,0.9-0.8,1C125.6,256.9,125.3,256.8,125.1,256.9C125.1,256.9,125.1,256.9,125.1,256.9z"/>
				<g>
					<path d="M112.9,253.3c1.1,0.3,2.2,0.8,2.9,1.8c0.3,0.4,0.2,0.8-0.3,1c-0.3,0.1-0.8,0.2-1.1,0.1c-0.8-0.2-1.5-0.7-2.1-1.3
						c-0.1-0.1-0.2-0.3-0.3-0.5C111.7,253.9,112.1,253.3,112.9,253.3z"/>
					<path d="M119.9,244.2c1.1,0.3,2.2,0.8,2.9,1.8c0.3,0.4,0.2,0.8-0.3,1c-0.3,0.1-0.8,0.2-1.1,0.1c-0.8-0.2-1.5-0.7-2.1-1.3
						c-0.1-0.1-0.2-0.3-0.3-0.5C118.6,244.8,119,244.2,119.9,244.2z"/>
				</g>
			</g>
		</g>
		<g>
			<g>
				<path class="st74" d="M128.9,107.6c0-0.5,0-1,0-1.5c0.1-1.7,0.1-3.3,0.2-5c0-0.3,0.1-0.7,0.3-1c0.7-1.5,2.5-1.8,3.6-0.6
					c0.4,0.5,0.7,1.1,1,1.7c0.5,1.4,0.6,2.9,0.7,4.3c0.1,1.3,0.3,2.7,0.5,4c0.3,2,1.3,3.7,2.7,5.1c2.6,2.5,5.6,4.4,8.8,5.8
					c2.2,1,4.4,1.8,6.7,2.7c0.3,0.1,0.6,0.2,0.9,0.4c1.2,0.7,1.4,2.2,0.4,3.2c-0.7,0.8-1.6,1.1-2.7,0.9c-1-0.2-1.9-0.5-2.8-0.9
					c-1.5-0.7-3-1.5-4.5-2.2c-0.7-0.4-1.4-0.8-2.2-1.1c-7.5-3.4-13.8-8.3-19.1-14.6c-1.8-2.1-3.6-4.1-4.9-6.4
					c-0.8-1.4-1.5-2.8-2.1-4.3c-0.2-0.5-0.3-1.2-0.3-1.8c0-1.6,1.6-2.5,2.9-1.6c0.5,0.3,1,0.8,1.3,1.3c0.8,1,1.4,2,2.1,3
					c1.9,2.7,3.9,5.4,5.8,8.1c0.1,0.2,0.3,0.4,0.5,0.6C128.8,107.7,128.9,107.7,128.9,107.6z"/>
				<path class="st74" d="M163.8,90.2c-0.4-0.3-0.8-0.6-1.2-0.9c-1.4-0.9-2.8-1.8-4.2-2.7c-0.3-0.2-0.6-0.3-1-0.3
					c-1.6-0.3-2.9,0.9-2.6,2.6c0.1,0.6,0.4,1.2,0.8,1.7c0.8,1.2,2,2.1,3.1,3.1c1,0.9,2,1.8,3,2.7c1.4,1.4,2.2,3.1,2.6,5.1
					c0.6,3.6,0.3,7.1-0.3,10.6c-0.5,2.3-1.1,4.6-1.7,7c-0.1,0.3-0.2,0.7-0.2,1c-0.1,1.4,0.9,2.4,2.3,2.2c1-0.2,1.9-0.7,2.3-1.7
					c0.4-0.9,0.7-1.8,0.9-2.8c0.3-1.6,0.5-3.3,0.8-4.9c0.1-0.8,0.2-1.6,0.4-2.4c1.5-8.1,1.2-16.1-0.8-24c-0.7-2.6-1.2-5.3-2.4-7.7
					c-0.7-1.4-1.5-2.8-2.3-4.2c-0.3-0.5-0.8-1-1.3-1.3c-1.3-0.9-2.9-0.2-3,1.4c0,0.6,0.1,1.2,0.2,1.8c0.4,1.2,0.8,2.3,1.2,3.5
					c1.1,3.1,2.2,6.3,3.3,9.4c0.1,0.2,0.1,0.5,0.2,0.7C163.9,90.1,163.8,90.2,163.8,90.2z"/>
			</g>
			<path class="st75" d="M167.5,133.3c3.4,0,5.8,1,8,2.7c2.1,1.7,3.9,3.7,5.4,5.9c2.6,3.5,4.5,7.5,6.2,11.5
				c1.9,4.5,3.3,9.2,4.7,13.8c0.8,2.5,1.6,5.1,2.3,7.6c0.2,0.6,0.3,1.1,0.4,1.7c0.3,1.5-0.2,2.8-1.2,3.8c-0.7,0.6-1.4,1.2-2.2,1.7
				c-4.6,2.7-9.6,4.5-14.8,5.6c-3.1,0.6-6.1,1.1-9.2,1.6c-0.8,0.1-1.6,0.2-2.4,0.2c-1.1,0.1-2-0.4-2.5-1.2c-0.5-0.7-0.9-1.5-1.3-2.4
				c-1.2-2.8-2.1-5.7-2.8-8.7c-1-4.1-2-8.2-2.9-12.3c-0.7-3.6-1.3-7.3-1.7-11c-0.5-4.2,0.2-8.3,2.2-12c1.9-3.6,4.7-6.2,8.5-7.7
				C165.5,133.5,166.8,133.3,167.5,133.3z"/>
			<path class="st52" d="M166.6,169.8c-4.6,0-8.5-1.6-11.8-4.8c-1.9-1.8-2.8-4-3.2-6.5c-0.4-2.2-0.6-4.3-0.7-6.5
				c-0.1-1.8-0.1-3.7-0.3-5.5c-0.2-2.1-0.6-4.2-1-6.3c-0.2-1-0.3-2-0.4-3c0-0.4-0.2-0.6-0.5-0.7c-0.3-0.1-0.6-0.3-0.9-0.4
				c-2.6-1.2-4.7-3.1-6.3-5.5c-0.6-0.9-1-1.8-1.2-2.9c-0.3-1.7,0.7-2.9,2.4-2.9c1,0,2,0.2,3,0.4c1.6,0.2,3.2,0.4,4.8,0.6
				c0.6,0.1,1-0.1,1.4-0.6c0.7-0.9,1.4-1.8,2.2-2.5c2.6-2.2,5.7-3.6,9.2-3.9c0.4,0,0.6-0.2,0.8-0.5c0.9-1.2,1.7-2.5,2.3-3.8
				c0.5-1.1,0.9-2.2,1.4-3.3c0.2-0.4,0.4-0.8,0.6-1.2c0.7-1.1,2-1.4,3.1-0.8c0.7,0.3,1.2,0.9,1.7,1.5c1.1,1.5,1.7,3.3,1.9,5.2
				c0.2,2.1,0.1,4.3-0.4,6.4c-0.1,0.6,0,1,0.4,1.4c0.8,0.9,1.5,1.8,2.1,2.7c1.9,3.1,4.3,5.8,7,8.1c3.7,3.1,6,7.1,7.2,11.8
				c1.3,5.1,0.1,9.7-3.3,13.7c-3,3.4-6.7,5.8-10.9,7.4c-2.6,1-5.2,1.8-8,2.1C168.4,169.7,167.5,169.8,166.6,169.8z"/>
			<g>
				<path d="M158.3,138.9c-0.1,0.3-0.2,0.7-0.3,1c-0.3,0.6-1,0.8-1.7,0.6c-0.3-0.1-0.6-0.3-0.8-0.5c-0.8-0.8-1.3-1.8-1.5-3
					c-0.1-0.7,0.2-1.2,0.7-1.6c0.6-0.4,1.2-0.3,1.7,0.1C157.6,136.3,158.2,137.4,158.3,138.9z"/>
				<path d="M171.8,133.6c-0.1,0.3-0.2,0.7-0.3,1c-0.3,0.6-1,0.8-1.7,0.6c-0.3-0.1-0.6-0.3-0.8-0.5c-0.8-0.8-1.3-1.8-1.5-3
					c-0.1-0.7,0.2-1.2,0.7-1.6c0.6-0.4,1.2-0.3,1.7,0.1C171.1,131,171.7,132.1,171.8,133.6z"/>
			</g>
			<g>
				<path class="st75" d="M167.1,164.6c-3.3-0.1-6.2-1-8.6-3.4c-1.8-1.8-2.7-4-3-6.4c-0.5-3.8,0.6-7,3.1-9.8
					c2.7-3.1,6.2-4.9,10.2-5.7c3.1-0.6,6.2-0.8,9.3,0c1.5,0.4,2.8,0.9,4.1,1.7c2.5,1.5,4,3.7,4.2,6.7c0.2,3-0.5,5.6-2.2,8
					c-1.2,1.7-2.7,3.2-4.5,4.3c-2.4,1.5-4.9,2.8-7.6,3.7C170.6,164.3,168.9,164.7,167.1,164.6z"/>
				<circle class="st76" cx="167" cy="143.5" r="4.8"/>
			</g>
		</g>
		<g>
			<path class="st77" d="M323.8,183.6c-0.1,3.8-0.9,7.5-2,11.2c-2,6.4-4.9,12.5-8.3,18.4c-0.6,1-1.3,2-2.1,3
				c-1.4,1.9-3.3,2.4-5.5,2.1c-1.6-0.2-3.2-0.7-4.7-1.3c-5.1-2-10-4.2-14.9-6.5c-0.3-0.2-0.7-0.3-1-0.5c-1.9-1.1-2.8-2.9-2.6-5.1
				c0.2-1.8,0.8-3.6,1.4-5.3c1.6-4.4,3.6-8.7,5.9-12.8c0.6-1,1.1-2,1.6-3.1c2.3-4.3,5.1-8.2,8.9-11.3c2.6-2.1,5.5-3.7,8.8-4.4
				c5.9-1.2,10.3,2.1,12.3,5.8c1,2,1.6,4.1,1.9,6.3C323.6,181.2,323.7,182.4,323.8,183.6z"/>
			<path class="st35" d="M333.9,170.2c-0.1,4-1.3,7.5-4.3,10.3c-2.2,2.1-4.8,3.3-7.8,3.8c-8.3,1.6-15.8-3.6-18.2-10.5
				c-0.3-0.8-0.6-1.6-0.8-2.4c-0.3-1.2-0.2-2.5,0-3.7c0.4-2,0.9-4,1.7-5.9c0.8-1.8,2-3.3,3.6-4.5c2.1-1.6,4.4-2.8,6.9-3.5
				c3.5-1,6.9-0.6,10.2,1.1c4.7,2.4,7.5,6.4,8.3,11.6C333.7,167.8,333.8,169,333.9,170.2z"/>
			<g>
				<path class="st35" d="M328.4,204.1c0,4.6-0.6,9-1.9,13.4c-1.1,3.3-2.4,6.5-4.7,9.3c-0.4,0.5-0.8,1-1.3,1.4
					c-0.3,0.3-0.8,0.6-1.2,0.8c-0.8,0.3-1.5,0.1-2-0.6c-0.5-0.8-0.9-1.5-1.3-2.4c-0.9-2-1.4-4.1-1.7-6.3c-0.5-4.4-0.9-8.8-0.7-13.2
					c0.1-2.2,0.4-4.4,0.6-6.6c0.1-1.8,0.4-3.6,0.9-5.3c0.4-1.4,1-2.8,2-4c0.8-0.9,1.7-1.5,2.9-1.7c2.1-0.3,3.8,0.4,5.1,1.9
					c1,1.1,1.7,2.4,2.1,3.8c0.4,1.4,0.7,2.9,0.8,4.4C328.3,200.7,328.3,202.4,328.4,204.1z"/>
				<path class="st35" d="M291.3,178.5c0.1-4.9,0.9-9.7,2.4-14.4c0.5-1.7,1.1-3.4,1.6-5.1c0.2-0.6,0.6-1.2,0.9-1.8
					c0.3-0.5,0.7-0.8,1.3-0.7c0.6,0.1,0.9,0.5,1.1,1.1c0.3,1.3,0.6,2.6,0.8,3.9c0.6,3.2,1.3,6.5,1.9,9.7c0.5,2.6,0.7,5.2,0.1,7.9
					c-0.5,2.2-1.5,4.2-3.1,5.8c-0.4,0.5-0.9,0.9-1.5,1.2c-1.4,0.8-2.8,0.6-3.9-0.6c-0.8-0.9-1.2-1.9-1.3-3.1
					C291.4,181.1,291.4,179.8,291.3,178.5z"/>
			</g>
			<g>
				<path d="M315.3,162.4c0,0.7-0.2,1.4-0.6,2c-0.4,0.6-0.9,0.8-1.6,0.7c-0.8-0.1-1.1-0.5-1.1-1.3c0-1,0.3-1.9,0.9-2.7
					c0.3-0.5,0.8-0.8,1.4-0.6c0.6,0.2,0.8,0.7,1,1.2C315.3,161.9,315.2,162.2,315.3,162.4z"/>
				<path d="M325.4,164.8c0,0.7-0.2,1.4-0.6,2c-0.4,0.6-0.9,0.8-1.6,0.7c-0.8-0.1-1.1-0.5-1.1-1.3c0-1,0.3-1.9,0.9-2.7
					c0.3-0.5,0.8-0.8,1.4-0.6c0.6,0.2,0.8,0.7,1,1.2C325.4,164.3,325.4,164.5,325.4,164.8z"/>
			</g>
			<g>
				<path class="st78" d="M310.8,174.6c-0.3,0-0.6-0.1-0.7-0.5c-0.1-0.3,0-0.6,0.3-0.8c1.7-1.5,3.3-3.1,5-4.6
					c0.5-0.5,1.1-0.5,1.7-0.1c0.5,0.3,1.2,0.6,1.7,0.9c0.4,0.2,0.7,0.4,1,0.7c0.7,0.7,0.6,1.4-0.3,1.8c-1,0.4-2,0.8-3,1.1
					C315.1,173.5,311.3,174.5,310.8,174.6z"/>
				<path class="st77" d="M311.4,172.8c-0.3,0-0.7-0.1-1.1-0.1c-0.3-0.1-0.6-0.3-0.6-0.6c-0.1-0.4,0.1-0.6,0.4-0.8
					c2-1.2,3.9-2.3,5.9-3.4c0.6-0.4,1.2-0.3,1.7,0.2c0.5,0.4,1,0.8,1.5,1.2c0.3,0.3,0.6,0.6,0.9,0.9c0.6,0.8,0.3,1.5-0.7,1.7
					c-1.1,0.2-2.1,0.4-3.2,0.5C314.6,172.6,313.1,172.7,311.4,172.8z"/>
			</g>
		</g>
	</g>
</g>
</svg>
