<?xml version="1.0" encoding="utf-8"?>
<!-- Generator: Adobe Illustrator 21.1.0, SVG Export Plug-In . SVG Version: 6.00 Build 0)  -->
<svg version="1.1" id="Calque_1" xmlns="http://www.w3.org/2000/svg" xmlns:xlink="http://www.w3.org/1999/xlink" x="0px" y="0px"
	 viewBox="0 0 432 432" style="enable-background:new 0 0 432 432;" xml:space="preserve">
<style type="text/css">
	.st0{fill:#3B4F20;}
	.st1{fill:#8CB225;}
	.st2{fill:#020203;}
	.st3{fill:#4A5C2D;}
	.st4{fill:#FFFFFF;}
	.st5{fill:#E2CF1B;}
	.st6{fill:#718A2A;}
	.st7{fill:#DFBB20;}
	.st8{fill:#EAC839;}
	.st9{fill:#1B1B1B;}
	.st10{fill:#8EC045;}
	.st11{fill:#066938;}
	.st12{fill:#E5AD30;}
	.st13{fill:#4E4D4D;}
	.st14{fill:#8BB226;}
	.st15{fill:#CD1A25;}
	.st16{fill:#4B6426;}
	.st17{fill:#7D9E3C;}
	.st18{fill:#3C4F20;}
	.st19{fill:#384A1F;}
	.st20{fill:#E7E6E6;}
	.st21{fill:#D4A624;}
	.st22{fill:#F7F0E3;}
	.st23{fill:#D2A206;}
	.st24{fill:#CE9835;}
	.st25{fill:#E5D9C2;}
	.st26{fill:#E2AE42;}
	.st27{fill:#EEDBBE;}
	.st28{fill:#F9EA31;}
	.st29{fill:#EB6518;}
	.st30{fill:#0A7132;}
	.st31{fill:#FFE109;}
	.st32{fill:#D76013;}
	.st33{fill:#BBA763;}
	.st34{fill:#7FA22A;}
	.st35{fill:#5B321B;}
	.st36{fill:#4A2615;}
	.st37{fill:#D6AD08;}
	.st38{fill:#F7BBBD;}
	.st39{fill:#D76324;}
	.st40{fill:#607829;}
	.st41{fill:#715C3B;}
	.st42{fill:#644F34;}
	.st43{fill:#89704C;}
	.st44{fill:#B2A38F;}
	.st45{fill:#A59076;}
	.st46{fill:#FFDE0D;}
	.st47{fill:#34AA4A;}
	.st48{fill:#75388D;}
	.st49{fill:#BBBBBB;}
	.st50{fill:#A9A9AA;}
	.st51{fill:#06993B;}
	.st52{fill:#CDCCCC;}
	.st53{fill:#4D2563;}
	.st54{fill:#E3B320;}
	.st55{fill:#0B9541;}
	.st56{fill:#264D23;}
	.st57{fill:#FDC834;}
	.st58{fill:#8C633A;}
	.st59{fill:#B5A059;}
	.st60{fill:#F2F2F2;}
	.st61{fill:#808181;}
	.st62{fill:#62A930;}
	.st63{fill:#A1C746;}
	.st64{fill:#85B04B;}
	.st65{fill:#5E802C;}
	.st66{fill:#BFD783;}
	.st67{fill:#EFC9AF;}
	.st68{fill:#343434;}
	.st69{fill:#EB5B28;}
	.st70{fill:#D1A98D;}
	.st71{fill:#E0A9B8;}
	.st72{fill:#754D24;}
	.st73{fill:#B2D17B;}
	.st74{fill:#62B338;}
	.st75{fill:#274E22;}
	.st76{fill:#CCDC81;}
	.st77{fill-rule:evenodd;clip-rule:evenodd;fill:#85B04B;}
	.st78{fill:#509733;}
	.st79{fill:#203F1E;}
	.st80{fill:#20963A;}
	.st81{fill:#62246B;}
	.st82{fill:#FDCA02;}
	.st83{fill:#B4CD50;}
	.st84{fill:#5C792A;}
	.st85{fill:#C29347;}
	.st86{fill:#4D5C22;}
	.st87{fill:none;}
	.st88{fill:#E19C11;}
	.st89{fill:#E5C997;}
	.st90{fill:#009245;}
	.st91{fill:#48AE4D;}
	.st92{fill:#049348;}
	.st93{fill:#04683B;}
	.st94{fill:#F8AE4C;}
	.st95{fill:#C57B39;}
	.st96{fill:#231F20;}
	.st97{fill:#BC2333;}
	.st98{fill:#EF7A7B;}
	.st99{fill:#46AE51;}
	.st100{fill:#07924B;}
	.st101{fill-rule:evenodd;clip-rule:evenodd;fill:#231F20;}
	.st102{fill:#279A9A;}
	.st103{fill:#8E3189;}
	.st104{fill:#9F6E8E;}
	.st105{fill:#3C3C3B;}
	.st106{fill:#00A69C;}
	.st107{fill:#D5DB41;}
	.st108{fill:#E04542;}
	.st109{fill:#9F1F3B;}
	.st110{fill:#EB5C35;}
	.st111{fill:#F9B233;}
	.st112{fill:#008D36;}
	.st113{fill:#F39200;}
	.st114{fill:#F2D8BD;}
	.st115{fill:#3AAA35;}
	.st116{fill:#95C11F;}
	.st117{fill:#7F5FA5;}
	.st118{fill:#5FA55F;}
	.st119{fill:#A55F8F;}
	.st120{fill:#229538;}
	.st121{fill:#622369;}
	.st122{fill:#FCC804;}
	.st123{fill:#628FB8;}
	.st124{fill:#B2B2B2;}
	.st125{fill:#63B8A4;}
	.st126{fill:#FDCE6C;}
	.st127{fill:#C8DADC;}
	.st128{fill:#ED6B6E;}
	.st129{fill:#EC6365;}
	.st130{fill:#8FC14D;}
	.st131{fill:#FECE6C;}
	.st132{fill:#037132;}
	.st133{fill:#B5CD25;}
	.st134{fill:#137E35;}
	.st135{fill:#7DBA28;}
	.st136{fill:#50AE32;}
	.st137{fill:#04612D;}
	.st138{fill:#F0828B;}
	.st139{fill:#63348B;}
	.st140{fill:#CF75AC;}
	.st141{fill:#895B7E;}
	.st142{fill:#AD94C4;}
	.st143{fill:#C581AB;}
	.st144{fill:#D1BAB0;}
	.st145{fill:#EF7B7C;}
	.st146{fill:#F7C0C2;}
	.st147{fill:#4F1C31;}
	.st148{fill:#9C3760;}
	.st149{fill:#A8768F;}
	.st150{fill:#A04170;}
	.st151{fill:#6CB863;}
</style>
<g>
	<g>
		<path class="st130" d="M308.1,197.2c0.2,0.5,0.4,1,0.6,1.4c3,4.8,7.6-1.3,5.3-25.5c0-0.3,0-0.7,0-1.2c19,14.3,11.7,65.2,13.2,77.3
			c1.6,0,0.2,0,7.2-0.2c1.9-26.5-3.8-73.3-1.3-102.9c0.3-3,0.8-6,2.4-8.6c1.9-3.1,4-6,6.5-8.5c0.4-0.4,0.8-0.7,1.4-1.2
			c0,0.6,0.1,0.9,0.1,1.2c-0.1,1.8-0.1,3.7-0.3,5.5c-0.5,4.9-0.3,9.7,0.6,14.5c0.2,1.3,0.6,2.6,1.1,3.8c0.3,0.8,0.9,1.6,1.6,2.1
			c1.2,1,2.7,0.7,3.5-0.7c0.2-0.4,0.4-0.9,0.6-1.4c0.8-2.6,1.2-5.3,1-8.1c0-0.4,0-0.8-0.1-1.2c0.9,1.2,1.6,2.4,2.4,3.6
			c1,1.4,2.1,2.7,3.6,3.6c1.1,0.6,2.3,0.8,3.4,0c1.2-0.8,1.8-1.9,1.6-3.4c-0.1-0.6-0.2-1.2-0.3-1.7c-1.1-4.3-2.8-8.3-5.1-12
			c-0.2-0.3-0.4-0.7-0.7-1.2c1.2,0.3,2.1,0.5,3,0.7c3,0.6,6,0.6,8.9-0.6c1.3-0.5,2.4-1.3,3.2-2.4c1.2-1.7,0.8-3.7-0.9-4.7
			c-0.5-0.3-1.1-0.6-1.7-0.8c-1.5-0.4-2.9-0.8-4.4-1.1c-3.1-0.6-6.1-1.2-9.5-0.4c0.3-0.3,0.5-0.5,0.7-0.7c1-0.7,2.1-1.4,3.1-2.1
			c1.7-1.3,3.4-2.6,5.1-4c0.9-0.7,1.4-1.7,1.8-2.7c0.4-1.4-0.2-2.3-1.6-2.2c-0.9,0-1.8,0.2-2.6,0.5c-4.1,1.4-7.9,3.3-11.5,5.7
			c-0.3,0.2-0.7,0.5-1.2,0.8c0.4-1.7,0.8-3.1,1.1-4.5c1.2-4.6,2.2-9.2,2.5-13.9c0.1-1.4,0-2.9-0.3-4.3c-0.4-2-2.1-2.4-3.6-1
			c-0.7,0.6-1.2,1.4-1.7,2.2c-2.5,4.5-4.1,9.4-5.2,14.4c-0.9,3.8-1.4,7.7-0.8,11.7c-1.4,1.1-2.7,2.1-4.1,3.1c-4,3-6.9,6.9-8.6,11.6
			c-1.5,4.1-2.2,8.3-2.6,12.6c-0.7,8-0.5,15.8-0.4,23.8c-2.5-2.8-4.5-4-8.9-7c0.4-4-0.3-7.9-1.4-11.6c-1.4-5-3.2-9.7-5.9-14.1
			c-0.5-0.8-1.1-1.5-1.8-2.1c-1.5-1.3-3.2-0.8-3.6,1.2c-0.2,1.4-0.2,2.9-0.1,4.3c0.6,4.7,1.8,9.3,3.2,13.8c0.4,1.4,0.9,2.8,1.4,4.4
			c-0.6-0.3-0.9-0.5-1.3-0.8c-3.7-2.3-7.6-4-11.7-5.2c-0.9-0.2-1.8-0.4-2.6-0.4c-1.4,0-2,0.9-1.5,2.3c0.4,1,1,2,1.9,2.6
			c1.7,1.3,3.5,2.5,5.2,3.7c1,0.7,2.1,1.3,3.2,2c0.2,0.1,0.4,0.3,0.8,0.6c-3.4-0.6-6.4,0.1-9.4,0.8c-1.5,0.4-2.9,0.8-4.4,1.3
			c-0.6,0.2-1.1,0.5-1.7,0.9c-1.7,1.1-2,3.2-0.7,4.8c0.9,1.1,2,1.8,3.4,2.3c2.9,1,5.9,0.9,8.9,0.1c0.9-0.2,1.9-0.5,3-0.9
			c-0.3,0.5-0.4,0.9-0.6,1.3c-2.2,3.8-3.7,7.9-4.6,12.2c-0.1,0.6-0.2,1.2-0.2,1.7c-0.1,1.5,0.6,2.6,1.8,3.3c1.2,0.7,2.3,0.5,3.4-0.2
			c1.5-1,2.5-2.3,3.5-3.8c0.7-1.2,1.4-2.4,2.2-3.7c0,0.4,0,0.8,0,1.2C306.6,191.9,307.2,194.6,308.1,197.2z"/>
		<path class="st130" d="M376.4,181.1c-0.4-0.3-0.9-0.5-1.3-0.7c-1.1-0.4-2.3-0.8-3.5-1.1c-2.4-0.6-4.9-1.2-7.5-0.7
			c0.3-0.2,0.4-0.4,0.6-0.5c0.9-0.5,1.7-1,2.6-1.5c1.4-1,2.8-1.9,4.2-3c0.7-0.5,1.2-1.3,1.5-2.1c0.4-1.1-0.1-1.8-1.2-1.8
			c-0.7,0-1.4,0.1-2.1,0.3c-3.3,0.9-6.5,2.3-9.4,4.1c-0.3,0.2-0.6,0.3-1,0.6c0.4-1.3,0.7-2.4,1.1-3.6c1.1-3.6,2.1-7.3,2.6-11
			c0.1-1.1,0.2-2.3,0-3.4c-0.3-1.6-1.6-2-2.9-1c-0.6,0.5-1.1,1.1-1.4,1.7c-2.2,3.5-3.7,7.3-4.8,11.3c-0.8,3-1.4,6.1-1.1,9.3
			c-1.2,0.8-2.3,1.6-3.4,2.3c-3.3,2.3-5.8,5.2-7.4,8.9c-1.4,3.2-2.1,6.5-2.6,9.9c-0.8,5.4-1,10.8-1.2,16.2
			c-0.1,4.1-0.2,8.2-0.4,12.3c-0.3,5.4-0.2,10.1,0.2,15.5c0.4,0,0.7,0,1.1,0c1.5-0.1,3-0.1,4.5-0.1c0.1-3.7,0.2-7.5,0.2-11.2
			c0.1-6.5,0.2-13,0.5-19.5c0.2-5.4,0.6-10.8,1.3-16.2c0.3-2.4,0.9-4.7,2.3-6.8c1.6-2.4,3.5-4.6,5.6-6.5c0.3-0.3,0.7-0.5,1.2-0.9
			c0,0.5,0,0.7,0,1c-0.1,1.5-0.2,2.9-0.5,4.4c-0.6,3.9-0.6,7.7-0.1,11.6c0.1,1,0.4,2.1,0.7,3.1c0.2,0.7,0.7,1.3,1.2,1.8
			c0.9,0.9,2.1,0.6,2.8-0.4c0.2-0.3,0.4-0.7,0.5-1.1c0.8-2.1,1.2-4.2,1.2-6.4c0-0.3,0-0.6,0-1c0.7,1,1.2,2,1.8,2.9
			c0.7,1.2,1.6,2.3,2.8,3c0.9,0.6,1.8,0.7,2.7,0.2c1-0.6,1.5-1.5,1.4-2.6c0-0.5-0.1-0.9-0.2-1.4c-0.7-3.5-1.9-6.7-3.6-9.8
			c-0.2-0.3-0.3-0.6-0.5-1c0.9,0.3,1.6,0.5,2.4,0.7c2.4,0.6,4.7,0.7,7.1-0.1c1.1-0.3,2-0.9,2.7-1.8C378,183.6,377.8,182,376.4,181.1
			z"/>
		<path class="st141" d="M354.3,251.9c8.3-19.3,9.3-16.1-11.8-15.4c-41.4,1.5-35.6-3-24.1,18.3c-22.8,7.3-20.6,44.9,7.6,52.6
			C372.3,320.2,387.8,257.8,354.3,251.9z"/>
	</g>
	<g>
		<g>
			<g>
				<path class="st130" d="M133.2,106.6c-11.9,0-32.5,23.1-35.2,21.2c-1.4-0.9,4.5-26.8,5.4-27.9c2.8-3.4,3.3-8.8-0.7-10.6
					c-5.4-2.5-13,2.9-8.4,8.1c2.7,3,6.2,2.8-1.5,27c-1.7,5.3-10.3-12-26-4c3,1.1,19.6,7.3,19.1,11.2c-0.4,3.2-14.5-3.4-23.8,12
					c41.8-6,12.5-9.4,29.5,86c1.7,0,3.4,0,4.9,0c-2.9-11.2-4.5-20.4-5.1-40.1c-2.5-81.8,10.4-30.7,19-31.4
					c-1.3-13.4-8.5-21.5,6.7-13.4c2.3,1.2,4.7,2.4,7,3.6c0.7,0.3,1.4,0.6,2.1,0.8c0.1-0.1,0.2-0.2,0.3-0.3c-0.2-0.9-0.4-1.9-0.6-2.8
					c-0.7-3-1.5-6-3.1-8.7c-4.3-7.5-12.6-6.2-16.7-6.3c-6.9-0.1,22.4-16.9,22.5-16.8c0.3,2.1,3.3,4.7,6.4,3.2
					C141.6,114.3,138.3,106.8,133.2,106.6z"/>
			</g>
			<path class="st142" d="M116.2,81.7c-1,0.4-2,0.9-3,1.5c-3,1.8-5.8,4.1-8.3,5.5c2.9-5.4,9.4-9.1,10.8-15.2c0.8-3.6-1-7.2-4.8-6.9
				c-4,0.2-5.6,3.7-6.6,7c-0.3-2.5-2-8.9-5.1-8.7c-3.8,0.3-4.1,6.6-4.4,9.1c-0.1,4.5,1.8,10.5,2.1,14.2c0,0,0,0,0,0c0,0,0,0,0,0l0,0
				c-4.6-4.1-7.3-11.7-12.9-14.5c-3.3-1.6-7.2-0.7-7.8,3c-0.7,3.9,2.3,6.3,5.3,8.1c-2.4-0.3-9.1-0.1-9.7,3c-0.6,3.7,5.4,5.6,7.9,6.4
				c4.3,1.1,9.7,1.2,13.5,1.8c-5.2,2.8-13,3.3-17.1,7.6c-2.5,2.7-2.7,6.7,0.7,8.4c3.6,1.8,6.7-0.4,9.3-2.8c-1,2.3-2.7,8.7,0.1,10.1
				c3.4,1.7,6.9-3.6,8.3-5.7c2.4-3.9,3-10.3,4.7-13.7l0.1,0.9c0.7,5.6-1.6,12.6,0.4,17.9c0.1,0.2,0.2,0.5,0.3,0.7
				c1.6,3.3,5.3,5,8.1,2.4c0.9-0.8,1.4-1.6,1.7-2.6c0.7-2.2,0-4.8-0.9-7.1c1.4,1.4,5.1,4.2,7.8,4.2c0.7,0,1.3-0.2,1.7-0.6
				c2.8-2.6-0.9-7.7-2.3-9.9c-2.7-3.5-6.9-6.4-9.5-9.1c6.1,0.6,12.1,5,18.3,4c3.6-0.6,6.2-3.7,4.5-7.1c-0.2-0.5-0.5-0.9-0.8-1.2
				c-2-2.4-5.3-2.5-8.3-2.2c2.2-1.2,7.4-5.3,6.1-8.1C124.6,78.8,118.6,80.9,116.2,81.7z M104.8,95.4c-0.1,0.2-0.2,0.3-0.2,0.5
				c-1.2,2.4-3.4,3.1-5.3,2.7c-1.8-0.4-3.5-1.8-4.2-3.5c-0.4-0.9-0.4-2-0.1-3.1c0.4-1.3,1.4-2.1,2.5-2.6c1.9-0.8,4.3-0.6,6,0.5
				C105.1,91,105.9,92.9,104.8,95.4z"/>
			<path class="st143" d="M148,100.7c-0.9,0.4-1.9,0.9-2.8,1.4c-2.8,1.7-5.5,3.9-7.9,5.2c2.8-5.1,8.9-8.7,10.2-14.4
				c0.8-3.4-1-6.8-4.5-6.6c-3.8,0.2-5.4,3.5-6.3,6.7c-0.2-2.3-1.9-8.4-4.9-8.3c-3.6,0.2-3.9,6.2-4.1,8.7c-0.1,4.3,1.7,9.9,2,13.5
				c0,0,0,0,0,0c0,0,0,0,0,0l0,0c-4.3-3.9-6.9-11.1-12.2-13.7c-3.1-1.5-6.8-0.7-7.4,2.9c-0.7,3.7,2.1,6,5,7.7
				c-2.3-0.3-8.6-0.1-9.2,2.8c-0.6,3.5,5.1,5.3,7.5,6c4.1,1.1,9.2,1.2,12.8,1.7c-5,2.7-12.3,3.1-16.2,7.2c-2.4,2.6-2.6,6.4,0.6,7.9
				c3.4,1.7,6.4-0.3,8.8-2.6c-1,2.1-2.5,8.3,0.1,9.6c3.2,1.6,6.5-3.4,7.9-5.4c2.3-3.7,2.9-9.8,4.4-13l0.1,0.8
				c0.7,5.4-1.5,11.9,0.4,17c0.1,0.2,0.2,0.5,0.3,0.7c1.5,3.1,5,4.7,7.6,2.3c0.8-0.7,1.3-1.6,1.6-2.4c0.7-2.1,0-4.5-0.9-6.7
				c1.3,1.3,4.9,4,7.4,4c0.6,0,1.2-0.2,1.6-0.6c2.6-2.4-0.8-7.3-2.2-9.3c-2.5-3.3-6.5-6.1-9-8.6c5.8,0.6,11.5,4.8,17.3,3.8
				c3.4-0.6,5.9-3.5,4.3-6.7c-0.2-0.4-0.5-0.8-0.7-1.2c-1.9-2.3-5-2.4-7.8-2.1c2-1.1,7-5.1,5.7-7.7C156,97.9,150.4,99.9,148,100.7z
				 M137.3,113.7c-0.1,0.2-0.1,0.3-0.2,0.5c-1.2,2.3-3.2,2.9-5,2.5c-1.7-0.4-3.3-1.7-4-3.3c-0.4-0.9-0.4-1.9-0.1-2.9
				c0.4-1.2,1.3-2,2.4-2.5c1.8-0.8,4.1-0.6,5.7,0.5C137.5,109.5,138.3,111.3,137.3,113.7z"/>
		</g>
		<path class="st141" d="M92.8,265.6c3.8-0.1,8.1-0.3,13-0.5c13.1-0.6,16.3-1.5,24.9-55.6c2.9-17.9-3.7-14.5-37.9-15.1
			c-33.8,0.8-40.7-2.8-37.9,15.1c8.7,54.2,11.8,55.1,24.9,55.6C84.7,265.3,89,265.5,92.8,265.6z"/>
	</g>
	<g>
		<g>
			<path class="st130" d="M245.8,187.6c-32.1,32.1-28.6,31.3-39.6,53.1c-0.2-1-0.1-1.9-0.1-2.8c7.6-81.5-9.3-79.6-4.8-60.5
				c4.6,19.5,1.6,39.9-0.4,62c-1.5-1.2-3.3-21.7-12.5-38.4c-0.6-1.1-9.5-18.6-10.4-19.4c-1.9-1.7-4.7,0.1-4,2.4
				c0,0.1,24.4,40.6,24.7,73.1c-6.8-6.3-20.1-11.2-34.6-4.5c-0.4,0.2-0.7,0.4-1,0.7c-0.6,0.6-0.6,1.4,0.2,1.9
				c0.4,0.3,0.8,0.5,1.2,0.7c2.8,1.3,5.7,2.6,8.2,4.6c4.3,3.4,6.9,7.8,8.4,13.1c-0.7,0-1.3-0.1-1.9-0.1c-0.6-0.1-1.3-0.2-1.9-0.2
				c-7-0.5-13,1.9-18.2,6.3c-3.9,3.3-6.7,7.6-9.1,12.1c-0.2,0.4-0.3,0.8-0.4,1.2c-0.3,1.3,0.2,2.1,1.5,2.5c1.2,0.4,2.4,0,3.6-0.2
				c3.4-0.7,6.8-1.4,10.2-2c2.3-0.4,4.7-0.4,7-0.1c6,0.8,19.3,4.1,22.2,9.2c2.7,4.7,3.9,9.7,4.3,15c0.2,1.9,0.3,3.9,0.3,5.8l9.9-0.2
				c-0.1-2.2-0.3-4.3-0.4-6.5c-0.1-2.1-0.2-4.3-0.1-6.4c0.1-2.9,1.2-5.5,3.2-7.6c2.5-2.5,11.8-4.1,15.4-4.5
				c4.8-0.6,9.2,0.4,13.1,3.2c1.1,0.8,2.2,1.5,3.3,2.2c0.3,0.2,0.6,0.4,1,0.5c1.1,0.4,1.8-0.1,2-1.2c0.1-0.4,0.1-0.8,0.1-1.2
				c-0.1-1.8-0.1-3.7-0.2-5.5c-0.3-4.1-1.4-7.9-3.7-11.3c-5.3-7.9-13.2-7.9-22.6-7c0-0.2,0-0.4,0.1-0.5c1.8-3.5,4.3-6.5,7.8-8.4
				c4.1-2.2,8.4-2.6,12.9-1.4c1.3,0.4,2.7,0.7,4,1.1c1,0.2,1.7-0.2,1.7-1.1c0-0.4-0.1-0.7-0.2-1.1c-0.7-2.3-1.3-4.6-2.1-6.9
				c-1.3-3.4-2.7-6.7-5.1-9.4c-9.4-10.9-22.3-3.6-32.5,8.3c-4.5-21.2,43.6-68.3,43.7-68.4C251.1,187.9,248.3,185,245.8,187.6z"/>
			<g>
				<g>
					<path class="st143" d="M235.8,155.4c-6.2-3.9-13.8-6.2-20.8-3.4c2-7.5,0-15.7-5.3-21.5c-0.3-0.3-0.9-0.3-1.1,0
						c-4.5,5.6-8.2,14.3-6.3,21.6c-5.6-3.3-12.2-4.8-18.7-4.1c-0.5,0.1-0.9,0.5-0.8,1c0.9,3.9,2.7,7.6,5.2,10.7
						c2,2.5,6.3,3.4,9.4,4.3c-2.6,2.2-6.3,6.4-7.3,9.7c-0.6,1.9-1,4-1,6c0,1.8,0.2,4.3,1.1,5.9c1.8,3.2,7.9-3.4,9.2-4.9
						c2.2-2.6,3.9-5.5,5.3-8.6c0.5,3.4,2,6.5,4.3,9.2c1.5,1.7,3.2,3.2,5.1,4.4c1,0.6,2,1.2,3,1.6c0.6,0.3,1.5,0.8,2.2,0.6
						c1.5-0.5,1.8-3.7,2-4.9c0.4-2.4,0.2-4.9-0.1-7.3c-0.4-2.5-1-4.8-1.9-7.1c-0.5-1.1-1.3-2.5-1.9-3.5c6.9,0.5,14.8-2.8,18.8-8.6
						C236.3,156.2,236.1,155.6,235.8,155.4z"/>
					<ellipse class="st141" cx="207.6" cy="160.8" rx="6.7" ry="6.5"/>
				</g>
				<g>
					<path class="st143" d="M270.8,192.9c-2.6-4.9-6.8-9.2-12.4-10c4.1-4.2,5.8-10.3,4.4-16.1c-0.1-0.3-0.5-0.5-0.8-0.4
						c-5,2-10.6,6.3-12.1,11.9c-2.5-4.2-6.2-7.6-10.8-9.6c-0.4-0.2-0.8,0-0.9,0.4c-0.8,2.9-1,6-0.5,9c0.4,2.4,2.9,4.6,4.6,6.3
						c-2.5,0.5-6.5,1.9-8.4,3.6c-1.1,1-2.1,2.2-2.9,3.6c-0.7,1.2-1.5,2.9-1.5,4.3c0,2.8,6.5,0.7,7.8,0.2c2.4-0.9,4.6-2.2,6.6-3.7
						c-0.9,2.4-1.1,5-0.6,7.6c0.3,1.7,0.9,3.3,1.7,4.8c0.4,0.8,0.9,1.5,1.4,2.2c0.3,0.4,0.7,1.1,1.2,1.2c1.2,0.2,2.5-1.8,3.1-2.5
						c1.1-1.5,2-3.1,2.6-4.8c0.7-1.8,1.1-3.5,1.4-5.4c0.1-0.9,0-2.1,0.1-3c4.3,2.9,10.8,3.6,15.5,1.3
						C270.9,193.6,271,193.2,270.8,192.9z"/>
					
						<ellipse transform="matrix(0.4906 -0.8714 0.8714 0.4906 -34.5575 312.9444)" class="st141" cx="250.4" cy="186" rx="4.9" ry="5"/>
				</g>
				<g>
					<path class="st143" d="M179.9,167.6c-3.7,0.8-7.3,2.7-8.9,6.2c-2-3.5-5.7-5.8-9.7-6c-0.2,0-0.4,0.2-0.4,0.4
						c0.4,3.7,2.1,8.2,5.4,10.2c-3.2,0.8-6.2,2.6-8.3,5.2c-0.2,0.2-0.2,0.5,0.1,0.7c1.8,1.1,3.7,1.8,5.8,2.1c1.6,0.2,3.5-1,5-1.8
						c-0.2,1.7,0,4.6,0.8,6.2c0.5,0.9,1.1,1.8,1.8,2.6c0.7,0.7,1.6,1.5,2.5,1.8c1.8,0.5,1.7-4.1,1.6-5.1c-0.1-1.7-0.6-3.4-1.1-5.1
						c1.4,1.1,3.1,1.7,4.9,1.8c1.2,0.1,2.3,0,3.5-0.2c0.6-0.1,1.1-0.3,1.7-0.5c0.3-0.1,0.8-0.2,1-0.6c0.4-0.7-0.7-2-1.1-2.5
						c-0.7-1-1.7-1.9-2.7-2.6c-1-0.8-2.1-1.4-3.3-1.9c-0.6-0.2-1.4-0.4-2-0.6c2.7-2.3,4.4-6.4,3.8-9.9
						C180.4,167.7,180.1,167.6,179.9,167.6z"/>
					
						<ellipse transform="matrix(0.7155 -0.6986 0.6986 0.7155 -76.7391 170.8972)" class="st141" cx="171.5" cy="179.7" rx="3.4" ry="3.3"/>
				</g>
			</g>
		</g>
		<path class="st143" d="M229.4,313.3l-51.5,0.4c-5,0-9,4.1-9,9.1l0,0.4c0,5,4.1,9,9.1,9l0.3,0l0.2,26.9c0,4.5,3.7,8.1,8.2,8.1
			l34.5-0.3c4.5,0,8.1-3.7,8.1-8.2l-0.2-26.9l0.3,0c5,0,9-4.1,9-9.1l0-0.4C238.5,317.3,234.4,313.3,229.4,313.3z"/>
	</g>
</g>
</svg>
