<svg xmlns="http://www.w3.org/2000/svg" viewBox="0 0 64 64"><defs><style>.cls-1,.cls-3{fill:#ffd578;stroke:#54596e;stroke-linecap:round;stroke-linejoin:round;stroke-width:2px}.cls-3{fill:#fff}.cls-4{fill:#54596e}</style></defs><g id="heart-hand"><path class="cls-1" d="M54.93 38.1l-4.25-21.55a2.5 2.5 0 0 0-2.84-2.11 2.5 2.5 0 0 0-2.1 2.84l2.87 19.29z"/><path class="cls-1" d="M57.93 33.1l-4.25-21.55a2.5 2.5 0 0 0-2.84-2.11 2.5 2.5 0 0 0-2.1 2.84l2.87 19.29zM9.31 38.1l4.25-21.55a2.5 2.5 0 0 1 2.84-2.11 2.5 2.5 0 0 1 2.1 2.84l-2.87 19.29z"/><path class="cls-1" d="M6.31 33.1l4.25-21.55a2.5 2.5 0 0 1 2.84-2.11 2.5 2.5 0 0 1 2.1 2.84l-2.87 19.29z"/><path d="M48.24 14a9.42 9.42 0 0 0-13.32 0l-2.61 2.6L29.7 14a9.42 9.42 0 0 0-13.32 13.27L19 29.88 32.31 43.2l13.32-13.32 2.61-2.61a9.42 9.42 0 0 0 0-13.27z" fill="#ff927d" stroke="#54596e" stroke-linecap="round" stroke-linejoin="round" stroke-width="2"/><path class="cls-1" d="M55.35 5.12a2.52 2.52 0 0 0-2.52 2.49L55 26l-9.94 15.12-3.41-4.74 1.59-3.67a5 5 0 0 0-2.62-6.57l-4.75 11L40 55.29l11.47-3.79 5.4-7.5 3-7a18.28 18.28 0 0 0 .84-12L57.83 7.64a2.5 2.5 0 0 0-2.48-2.52z"/><path class="cls-3" d="M37 51h17v8H37z"/><circle class="cls-4" cx="49.72" cy="54.97" r="2"/><path class="cls-1" d="M8.89 5.12a2.52 2.52 0 0 1 2.52 2.49L9 26l10.18 15.12 3.41-4.74L21 32.71a5 5 0 0 1 2.62-6.57l4.75 11-4.17 18.15-11.43-3.79-5.4-7.5-3-7a18.28 18.28 0 0 1-.84-12L6.41 7.64a2.5 2.5 0 0 1 2.48-2.52z"/><path class="cls-3" transform="rotate(-180 18.74 55)" d="M10.24 51h17v8h-17z"/><circle class="cls-4" cx="14.52" cy="54.97" r="2"/><path d="M26.86 24.07A7 7 0 0 0 32 26a7 7 0 0 0 5.1-1.9" fill="none" stroke="#54596e" stroke-linecap="round" stroke-linejoin="round" stroke-width="2"/><circle class="cls-4" cx="23" cy="19" r="2"/><circle class="cls-4" cx="41" cy="19" r="2"/></g></svg>