<?xml version="1.0" encoding="utf-8"?>
<!-- Generator: Adobe Illustrator 21.1.0, SVG Export Plug-In . SVG Version: 6.00 Build 0)  -->
<svg version="1.1" id="Calque_1" xmlns="http://www.w3.org/2000/svg" xmlns:xlink="http://www.w3.org/1999/xlink" x="0px" y="0px"
	 viewBox="0 0 432 432" style="enable-background:new 0 0 432 432;" xml:space="preserve">
<style type="text/css">
	.st0{fill:#EFC9AF;}
	.st1{fill:#C69C6C;}
	.st2{fill:#020203;}
	.st3{fill:#603914;}
	.st4{fill:#C1292E;}
	.st5{fill:#A67D52;}
	.st6{fill:#343434;}
	.st7{fill:#C7B29A;}
	.st8{fill:#754D24;}
	.st9{fill:#412413;}
	.st10{fill:#1B1B1B;}
	.st11{fill:#9E1460;}
	.st12{fill:#E7267A;}
	.st13{fill:#998675;}
	.st14{fill:#676767;}
	.st15{fill:#BEC1A5;}
	.st16{fill:#8D7968;}
	.st17{fill:#A6A184;}
	.st18{fill:#5B4841;}
	.st19{fill:#C1A07F;}
	.st20{fill:#72403F;}
	.st21{fill:#AA8767;}
	.st22{fill:#D6B394;}
	.st23{fill:#A34F4D;}
	.st24{fill:#B47B61;}
	.st25{fill:#E5C292;}
	.st26{fill:#B4AFA8;}
	.st27{fill:#9E9A98;}
	.st28{fill:#F39323;}
	.st29{fill:#F9B03D;}
	.st30{fill:#50B162;}
	.st31{fill:#106B40;}
	.st32{fill:#8C633A;}
	.st33{fill:#231F20;}
	.st34{fill:#2C2F32;}
	.st35{fill:#E52328;}
	.st36{fill:#C2C3C3;}
	.st37{fill:#2DABE3;}
	.st38{fill:#F9EA31;}
	.st39{fill:#E52629;}
	.st40{fill:#746458;}
	.st41{fill:#0D71B9;}
	.st42{fill:#E52521;}
	.st43{fill:#F6D9A7;}
	.st44{fill:#F4A5A6;}
	.st45{fill:#6E6F70;}
	.st46{fill:#929497;}
	.st47{fill:#F29A26;}
	.st48{fill:#E0C399;}
	.st49{fill:#F9CBCC;}
	.st50{fill:#EBDA8C;}
	.st51{fill:#30358C;}
	.st52{fill:#F6DEB8;}
	.st53{fill:#FFFFFF;}
	.st54{fill:#959FA1;}
	.st55{fill:#6A737A;}
	.st56{fill:#6CC0A9;}
	.st57{fill:#2C7179;}
	.st58{fill:#F2F2F2;}
	.st59{fill:#D83747;}
	.st60{fill:#C92C3F;}
	.st61{fill:#E67525;}
	.st62{fill:#FFD471;}
	.st63{fill:#F0832C;}
	.st64{fill:#90CDBC;}
	.st65{fill:#1E1B3C;}
	.st66{fill:#3C3C3B;}
	.st67{fill:#E94E1B;}
	.st68{fill:#BE1622;}
	.st69{fill:#665F4A;}
	.st70{fill:#3A3320;}
	.st71{fill:#13110C;}
	.st72{fill:#EDECED;}
	.st73{fill:#24211E;}
	.st74{fill:#DBD9DA;}
	.st75{fill:#D01419;}
	.st76{fill:#E1E0E0;}
	.st77{fill:#ECECEC;}
	.st78{fill:#F8F8F9;}
	.st79{fill:#6A6621;}
	.st80{fill:#89454C;}
	.st81{fill:#CBC135;}
	.st82{fill:#F8C8CB;}
	.st83{fill:#C45853;}
	.st84{fill:#729BA5;}
	.st85{fill:#F8AB00;}
	.st86{fill:#3B3835;}
	.st87{fill:#FAD3D7;}
	.st88{fill:#ECBABB;}
	.st89{fill:#F8CFB4;}
	.st90{fill:#844C16;}
	.st91{fill:#D49F61;}
	.st92{fill:#55514F;}
	.st93{fill:#B57D44;}
	.st94{fill:#FCE1E4;}
	.st95{fill:#D5D4D4;}
	.st96{fill:#B92932;}
	.st97{fill:#97C01E;}
	.st98{fill:#00AED3;}
	.st99{fill:#FFCE00;}
	.st100{fill:#E30613;}
	.st101{fill:#F28E36;}
	.st102{fill:#9B6228;}
	.st103{fill:#F6A753;}
	.st104{fill:#CB3749;}
	.st105{fill:#E4E1E1;}
	.st106{fill:#FDEA00;}
	.st107{fill:#53BFCC;}
	.st108{fill:#C2171F;}
	.st109{fill:#EA5139;}
	.st110{fill:#0098B0;}
	.st111{fill:#F28B00;}
	.st112{fill:#898584;}
	.st113{fill:#FAB84F;}
	.st114{fill:#E74310;}
	.st115{fill:#CC5E16;}
	.st116{fill:#00A33A;}
	.st117{fill:#F18600;}
	.st118{fill:#2C2523;}
	.st119{fill:#006633;}
	.st120{fill:#063141;}
	.st121{fill:#1488A9;}
	.st122{fill:#5CBCB8;}
	.st123{fill:#00472A;}
	.st124{fill:#ECC876;}
	.st125{fill:#EBA700;}
	.st126{fill:#F4E3BC;}
	.st127{fill:#BEBBBB;}
	.st128{fill:#A29F9D;}
	.st129{fill:#72C4BE;}
	.st130{fill:#DACCA3;}
	.st131{fill:#AAC5DD;}
	.st132{fill:#1B6DA2;}
	.st133{fill:#F9B233;}
	.st134{fill:#F39200;}
	.st135{fill:#5E5957;}
	.st136{fill:#BACFDD;}
	.st137{fill:#DBC6AF;}
	.st138{fill:#B17F4A;}
	.st139{fill:#467A97;}
	.st140{fill:#95C11F;}
	.st141{fill:#1D71B8;}
	.st142{fill:#2FAC66;}
	.st143{fill:#00A19A;}
	.st144{fill:#0B3958;}
	.st145{fill:#3AAA35;}
	.st146{fill:#1B4B64;}
	.st147{fill:none;}
	.st148{fill:#EBD53E;}
	.st149{fill:#EFF0F1;}
	.st150{fill:#F1BE00;}
	.st151{fill:#DFA600;}
	.st152{fill:#DAEEEE;}
	.st153{fill:#E9E7EA;}
	.st154{fill:#DE0B15;}
	.st155{fill:#AA1918;}
	.st156{fill:#76232F;}
	.st157{fill:#DC0C1F;}
	.st158{fill:#DC3015;}
	.st159{fill:#AA7F47;}
	.st160{fill:#DAAC71;}
	.st161{fill:#342D45;}
	.st162{fill:#F6F5F9;}
	.st163{fill:#1B1814;}
	.st164{fill:#E03D13;}
	.st165{fill:#BF2B17;}
	.st166{fill:#F5F0EF;}
	.st167{fill:#F19500;}
	.st168{fill:#D8870D;}
	.st169{fill:#31AD71;}
	.st170{fill:#2F7C55;}
	.st171{fill:#1A1814;}
	.st172{fill:#4B4845;}
	.st173{fill:#FAEEF0;}
	.st174{fill:#D19B09;}
	.st175{fill:#F1D7B5;}
	.st176{fill:#FCFCFD;}
	.st177{fill:#93BEC8;}
	.st178{fill:#D8D3D2;}
	.st179{fill:#4D4843;}
	.st180{fill:#4EABB8;}
	.st181{fill:#383835;}
	.st182{fill:#D5DADB;}
	.st183{fill:#9EBABB;}
	.st184{fill:#B4181C;}
	.st185{fill:#DD6A10;}
	.st186{fill:#F0F0F1;}
	.st187{fill:#753811;}
	.st188{fill:#DB0D1B;}
	.st189{fill:#DA213C;}
	.st190{fill:#BCDBB6;}
	.st191{fill:#9A9999;}
	.st192{fill:#4DA354;}
	.st193{fill:#DBBC9A;}
	.st194{fill:#A48A7B;}
	.st195{fill:#C5C2C2;}
	.st196{fill:#CC1417;}
	.st197{fill:#44403D;}
	.st198{fill:#F8D000;}
	.st199{fill:#974493;}
	.st200{fill:#F0811A;}
	.st201{fill:#58B034;}
	.st202{fill:#5BC4E9;}
	.st203{fill:#F8D71A;}
	.st204{fill:#E52921;}
	.st205{fill:#DDAE76;}
	.st206{fill:#F9DCBB;}
	.st207{fill:#CC6F22;}
	.st208{fill:#9CCDC5;}
	.st209{fill:#49998B;}
	.st210{fill:#9F3148;}
	.st211{fill:#DDA519;}
	.st212{fill:#EDC4A2;}
	.st213{fill:#5F3B17;}
	.st214{fill:#191517;}
	.st215{fill:#D9A67E;}
	.st216{fill:#C47713;}
	.st217{fill:#A91917;}
	.st218{fill:#DBC8CE;}
	.st219{fill:#9C6E80;}
	.st220{fill:#BC738E;}
	.st221{fill:#1E1E1C;}
	.st222{fill:#EAEAEA;}
	.st223{fill:#4E4D4D;}
	.st224{fill:#E7E6E6;}
	.st225{fill:#FED063;}
	.st226{fill:#FCBF0A;}
	.st227{fill:#AA5A9F;}
	.st228{fill:#833081;}
	.st229{fill:#882C87;}
	.st230{fill:#A4B639;}
	.st231{fill:#B9C95E;}
	.st232{fill:#D690BB;}
	.st233{fill:#AB6F97;}
</style>
<g>
	<g>
		<g>
			<path class="st91" d="M138,173.6c-6.1,12-22.9,13.6-34.8,12.5c-6.7-0.6-14.4-2.3-18.7-8c-3.3-4.5-4.5-10.6-4.4-16.1
				c0.5-15.1,23.6-14.8,31.5-6c4.1,4.6,3.3,13-1.2,17.1c-2.2,2-5.5,2.9-8.5,2.1c-2.6-0.7-4.2-2.2-3.5-5.2c0.6-2.4,2.5-4.6,5.1-3.8
				c2.8,0.8,3.9-3.5,1.2-4.3c-6.2-1.8-11.5,4.4-11.1,10.5c0.5,6.1,8.2,8.4,13.3,7.4c13.4-2.8,15.4-22.1,4.8-29.2
				c-5.9-4-14.5-6.2-21.4-4.6c-6,1.4-12.8,5.8-14.3,12.2c-1.5,6.2,0,13.9,2.8,19.5c3.2,6.3,9,9.9,15.7,11.7
				c15.1,3.9,39.2,2.4,47.2-13.3C143.2,173.3,139.3,171,138,173.6L138,173.6z"/>
		</g>
		<path class="st102" d="M222.1,126.9c-3.6,9.4-12,14.4-21.1,17.1c-1.3-2.2-2.8-4.3-4.4-6.2c9.6-5.2,16.9-12.9,20.2-22
			c0.3,0,0.6,0,1,0c8.3,0,15-6.7,15-15s-6.7-15-15-15c-1.6,0-3.1,0.2-4.5,0.7c-8.4-13-25.4-21.9-45.1-21.9c-19.6,0-36.6,8.8-45,21.7
			c-1.4-0.5-3-0.7-4.6-0.7c-8.3,0-15,6.7-15,15s6.7,15,15,15c0.3,0,0.6,0,0.9,0c3.4,9.5,11.2,17.6,21.6,22.8
			c-1.4,1.7-2.7,3.5-3.9,5.5c-9.1-2.7-17.5-7.8-21.1-17.1c-2.1-5.3-10.7-3-8.6,2.4c4.7,12.1,14.6,19.3,26.2,23
			c-0.9,3.2-1.4,6.5-1.4,10c0,11.7,5.4,22,13.9,28.8c-3.1,4.9-5.4,10.2-5.9,16.3c-0.9,11.5,4.2,22.3,7.6,33
			c1.7,5.5,10.3,3.1,8.6-2.4c-2.9-9.1-7.3-18.3-7.3-28.1c0-5.4,1.9-10,4.6-14.2c4.7,2.1,9.9,3.3,15.3,3.3c5.2,0,10.1-1.1,14.5-3
			c2.6,4.1,4.4,8.6,4.3,13.9c0,9.8-4.4,18.9-7.3,28.1c-1.7,5.5,6.9,7.8,8.6,2.4c3.4-10.7,8.4-21.5,7.6-33c-0.4-5.9-2.6-11-5.5-15.8
			c8.8-6.7,14.6-17.3,14.6-29.3c0-3.5-0.5-6.8-1.4-10c11.6-3.7,21.5-10.9,26.2-23C232.8,123.9,224.1,121.6,222.1,126.9z"/>
		<path class="st91" d="M205.9,103.8c0-14.4-10.7-26.1-24-26.1c-4.7,0-9.1,1.5-12.8,4.1c-3.7-2.6-8.1-4.1-12.8-4.1
			c-13.2,0-24,11.7-24,26.1c0,4.9,1.2,9.5,3.4,13.4c4.8,10,17.8,17.2,33.2,17.2c12.3,0,23.1-4.6,29.3-11.5
			C203,118.2,205.9,111.4,205.9,103.8z"/>
		<g>
			<circle class="st71" cx="143.3" cy="100.1" r="2.6"/>
			<circle class="st71" cx="193.1" cy="100.1" r="2.6"/>
			<g>
				<path class="st71" d="M149.8,121.1c5.6,4.3,12.2,6.2,19.3,6c6.3-0.2,13.2-1.5,17.5-6.5c0.9-1.1-0.6-2.7-1.6-1.6
					c-3.9,4.6-10.2,5.7-15.9,5.9c-6.5,0.2-12.5-1.3-17.7-5.3C150.3,118.7,148.7,120.3,149.8,121.1L149.8,121.1z"/>
			</g>
			<ellipse class="st71" cx="168.6" cy="111.3" rx="4.6" ry="3.2"/>
		</g>
		<circle class="st91" cx="169.3" cy="163.3" r="23.8"/>
	</g>
	<g>
		<g>
			<path class="st91" d="M261.8,297.3c-6.1,12-22.9,13.6-34.8,12.5c-6.7-0.6-14.4-2.3-18.7-8c-3.3-4.5-4.5-10.6-4.4-16.1
				c0.5-15.1,23.6-14.8,31.5-6c4.1,4.6,3.3,13-1.2,17.1c-2.2,2-5.5,2.9-8.5,2.1c-2.6-0.7-4.2-2.2-3.5-5.2c0.6-2.4,2.5-4.6,5.1-3.8
				c2.8,0.8,3.9-3.5,1.2-4.3c-6.2-1.8-11.5,4.4-11.1,10.5c0.5,6.1,8.2,8.4,13.3,7.4c13.4-2.8,15.4-22.1,4.8-29.2
				c-5.9-4-14.5-6.2-21.4-4.6c-6,1.4-12.8,5.8-14.3,12.2c-1.5,6.2,0,13.9,2.8,19.5c3.2,6.3,9,9.9,15.7,11.7
				c15.1,3.9,39.2,2.4,47.2-13.3C266.9,297,263.1,294.8,261.8,297.3L261.8,297.3z"/>
		</g>
		<path class="st102" d="M345.8,250.6c-3.6,9.4-12,14.4-21.1,17.1c-1.3-2.2-2.8-4.3-4.4-6.2c9.6-5.2,16.9-12.9,20.2-22
			c0.3,0,0.6,0,1,0c8.3,0,15-6.7,15-15c0-8.3-6.7-15-15-15c-1.6,0-3.1,0.2-4.5,0.7c-8.4-13-25.4-21.9-45.1-21.9
			c-19.6,0-36.6,8.8-45,21.7c-1.4-0.5-3-0.7-4.6-0.7c-8.3,0-15,6.7-15,15s6.7,15,15,15c0.3,0,0.6,0,0.9,0
			c3.4,9.5,11.2,17.6,21.6,22.8c-1.4,1.7-2.7,3.5-3.9,5.5c-9.1-2.7-17.5-7.8-21.1-17.1c-2.1-5.3-10.7-3-8.6,2.4
			c4.7,12.1,14.6,19.3,26.2,23c-0.9,3.2-1.4,6.5-1.4,10c0,11.7,5.4,22,13.9,28.8c-3.1,4.9-5.4,10.2-5.9,16.3
			c-0.9,11.5,4.2,22.3,7.6,33c1.7,5.5,10.3,3.1,8.6-2.4c-2.9-9.1-7.3-18.3-7.3-28.1c0-5.4,1.9-10,4.6-14.2c4.7,2.1,9.9,3.3,15.3,3.3
			c5.2,0,10.1-1.1,14.5-3c2.6,4.1,4.4,8.6,4.3,13.9c0,9.8-4.4,18.9-7.3,28.1c-1.7,5.5,6.9,7.8,8.6,2.4c3.4-10.7,8.4-21.5,7.6-33
			c-0.4-5.9-2.6-11-5.5-15.8c8.8-6.7,14.6-17.3,14.6-29.3c0-3.5-0.5-6.8-1.4-10c11.6-3.7,21.5-10.9,26.2-23
			C356.5,247.7,347.9,245.3,345.8,250.6z M293,310.9c-13.1,0-23.8-10.7-23.8-23.8s10.7-23.8,23.8-23.8c13.1,0,23.8,10.7,23.8,23.8
			S306.2,310.9,293,310.9z"/>
		<path class="st91" d="M329.6,227.5c0-14.4-10.7-26.1-24-26.1c-4.7,0-9.1,1.5-12.8,4.1c-3.7-2.6-8.1-4.1-12.8-4.1
			c-13.2,0-24,11.7-24,26.1c0,4.9,1.2,9.5,3.4,13.4c4.8,10,17.8,17.2,33.2,17.2c12.3,0,23.1-4.6,29.3-11.5
			C326.7,241.9,329.6,235.1,329.6,227.5z"/>
		<g>
			<circle class="st71" cx="267" cy="223.8" r="2.6"/>
			<circle class="st71" cx="316.8" cy="223.8" r="2.6"/>
			<g>
				<path class="st71" d="M273.5,244.9c5.6,4.3,12.2,6.2,19.3,6c6.3-0.2,13.2-1.5,17.5-6.5c0.9-1.1-0.6-2.7-1.6-1.6
					c-3.9,4.6-10.2,5.7-15.9,5.9c-6.5,0.2-12.5-1.3-17.7-5.3C274,242.4,272.4,244,273.5,244.9L273.5,244.9z"/>
			</g>
			<ellipse class="st71" cx="292.3" cy="235.1" rx="4.6" ry="3.2"/>
		</g>
	</g>
</g>
</svg>
