<svg xmlns="http://www.w3.org/2000/svg" viewBox="0 0 64 64"><defs><style>.cls-1,.cls-2{fill:#61c5a8;stroke:#54596e;stroke-linecap:round;stroke-linejoin:round;stroke-width:2px}.cls-2{fill:none}.cls-5{fill:#9af43b}</style></defs><g id="potion"><ellipse class="cls-1" cx="44.84" cy="9.76" rx="10.8" ry="7" transform="rotate(-45 44.833 9.76)"/><path class="cls-2" d="M33.52 21.07L46.96 7.64l-.8-6.11M50.49 14l-8.56-1.33"/><ellipse class="cls-1" cx="24.94" cy="9.76" rx="7" ry="10.8" transform="rotate(-45 24.934 9.762)"/><path class="cls-2" d="M36.25 21.07L22.82 7.64l.79-6.11M19.28 14l8.56-1.33"/><path d="M52.75 58L40 35V25a2 2 0 0 0 0-4H30a2 2 0 0 0 0 4v10L17.25 58a2.72 2.72 0 0 0 2.38 4h30.74a2.72 2.72 0 0 0 2.38-4z" fill="#a1b7ff" stroke="#54596e" stroke-linecap="round" stroke-linejoin="round" stroke-width="2"/><path class="cls-2" d="M36 25h4"/><path d="M19.63 62h30.74a2.72 2.72 0 0 0 2.38-4l-7.63-13.79C41.32 43.88 37.2 43 34 41a14.42 14.42 0 0 0-6.15-2.12L17.25 58a2.72 2.72 0 0 0 2.38 4z" fill="#9af43b" stroke="#54596e" stroke-linecap="round" stroke-linejoin="round" stroke-width="2"/><path class="cls-2" d="M29.86 56.07A7 7 0 0 0 35 58a7 7 0 0 0 5.1-1.9M40 50.5a2 2 0 0 1 4 0M26 50.5a2 2 0 0 1 4 0"/><circle class="cls-5" cx="37.5" cy="38.5" r="1.5"/><circle class="cls-5" cx="33.5" cy="30.5" r="1.5"/></g></svg>