<svg xmlns="http://www.w3.org/2000/svg" viewBox="0 0 64 64"><defs><style>.cls-3{fill:#54596e}.cls-4{fill:#ff927d}</style></defs><g id="puzzle"><circle cx="22" cy="24" r="21" stroke="#54596e" stroke-linecap="round" stroke-linejoin="round" stroke-width="2" fill="#fff35f"/><path d="M16.86 25.07A7 7 0 0 0 22 27a7 7 0 0 0 5.1-1.9" fill="none" stroke="#54596e" stroke-linecap="round" stroke-linejoin="round" stroke-width="2"/><circle class="cls-3" cx="13" cy="15" r="2"/><circle class="cls-3" cx="31" cy="15" r="2"/><circle class="cls-4" cx="31" cy="21" r="2"/><circle class="cls-4" cx="13" cy="21" r="2"/><path d="M59 44a4 4 0 0 0-3 1.38V33H43.62a4 4 0 1 0-5.24 0H27v12.38a4 4 0 1 1 0 5.24V62h11.38a4 4 0 1 1 5.24 0H56V50.62A4 4 0 1 0 59 44z" fill="#ffb8f2" stroke="#54596e" stroke-linecap="round" stroke-linejoin="round" stroke-width="2"/></g></svg>